<?xml version="1.0" encoding="UTF-8"?>
<svg id="Capa_1" data-name="Capa 1" xmlns="http://www.w3.org/2000/svg" viewBox="0 0 501.48 499.69">
  <defs>
    <style>
      .cls-1 {
        fill: #9f3332;
      }

      .cls-2 {
        fill: #fbf8f7;
      }

      .cls-3 {
        fill: #100808;
      }

      .cls-4 {
        fill: #681413;
      }

      .cls-5 {
        fill: #2d353f;
      }

      .cls-6 {
        fill: #695a59;
      }

      .cls-7 {
        fill: #4e1412;
      }

      .cls-8 {
        fill: #afa8a8;
      }

      .cls-9 {
        fill: #c94845;
      }

      .cls-10 {
        fill: #4f5f74;
      }

      .cls-11 {
        fill: #20252c;
      }

      .cls-12 {
        fill: #080505;
      }

      .cls-13 {
        fill: #916d6d;
      }

      .cls-14 {
        fill: #878380;
      }

      .cls-15 {
        fill: #a41a16;
      }

      .cls-16 {
        fill: #f9da9c;
      }

      .cls-17 {
        fill: #434e5e;
      }

      .cls-18 {
        fill: #5b4b4b;
      }

      .cls-19 {
        fill: #e0dcda;
      }

      .cls-20 {
        fill: #c11c1a;
      }

      .cls-21 {
        fill: #270d0d;
      }

      .cls-22 {
        fill: #7a1714;
      }

      .cls-23 {
        fill: #403333;
      }

      .cls-24 {
        fill: #d71e16;
      }

      .cls-25 {
        fill: #0e121c;
      }

      .cls-26 {
        fill: #891814;
      }

      .cls-27 {
        fill: #3a1111;
      }

      .cls-28 {
        fill: #38414d;
      }

      .cls-29 {
        fill: #c7c3c1;
      }
    </style>
  </defs>
  <path class="cls-11" d="m440.67,87.72c6.17,7.76,12.85,15.19,18.41,23.37,10.96,16.12,19.74,33.53,26.56,51.76,6.28,16.8,10.81,34.16,12.67,52.1-3.08-.55-5.37.24-6.51,3.47-.53,1.5-1.45,2.86-2.19,4.28-.66-1.61-1.56-3.17-1.94-4.85-3.04-13.42-5.11-27.13-9.13-40.24-8.12-26.53-20.11-51.25-37.92-72.85-3.78-4.58-7.23-9.42-10.83-14.15,1.23.48,2.48.92,3.69,1.45,5.38,2.31,6.5,1.64,7.2-4.32Z"/>
  <path class="cls-28" d="m92.8,55.88c23.93-20.39,51.36-34.56,81-44.36,11.63-3.84,23.92-5.71,35.91-8.47-2.81,1.21-5.53,2.75-8.45,3.55-5.36,1.46-7.65,4.7-6.52,10.03-1.07.43-2.1,1.01-3.21,1.27-19.69,4.66-38.26,12.25-55.76,22.24-11.21,6.4-21.86,13.78-32.76,20.72-1.09.92-2.18,1.84-3.26,2.75-2.28,1.72-4.55,3.45-6.83,5.17-5.12-1.9-6-5.1-2.61-9.27.93-1.14,1.68-2.42,2.51-3.63Z"/>
  <path class="cls-11" d="m63.7,415.68c-6.06-7.2-12.64-14.03-18.06-21.68-13.12-18.51-23.67-38.52-31.1-59.96-3.9-11.24-6.39-22.98-9.51-34.49.64.92,1.22,1.88,1.93,2.74.77.94,1.65,1.8,2.48,2.69.75-.95,1.91-1.79,2.18-2.86.9-3.46,1.48-7,2.18-10.51.76,1.75,1.74,3.44,2.23,5.26,3.06,11.36,5.35,22.98,9.17,34.08,3.77,10.93,9.3,21.25,13.61,32.01,4.34,10.81,10.79,20.12,18.38,28.82,4.12,4.72,7.69,9.91,11.5,14.89-5.52.86-4.47,5.37-5.01,9Z"/>
  <path class="cls-5" d="m92.8,55.88c-.83,1.22-1.58,2.49-2.51,3.63-3.39,4.17-2.51,7.37,2.61,9.27-1.6,1.86-3.09,3.83-4.83,5.56-4.1,4.09-8.5,7.9-12.47,12.11-14.84,15.77-27.18,33.38-37.9,52.16-8.6,2.03-5.49,11.38-10.11,16.68-1.54-2.9-2.81-5.32-4.09-7.73.49-1.63.98-3.26,1.47-4.89.58-1.01,1.16-2.03,1.74-3.04,4.96-14.42,14.09-26.42,22.81-38.57,11.39-15.87,24.44-30.33,39.5-42.87,1.12-.93,2.5-1.55,3.76-2.31Z"/>
  <path class="cls-11" d="m378.7,464.61c-5.65,3.4-11.14,7.12-16.99,10.15-19.65,10.17-40.5,16.99-62.17,21.31-.97.19-1.98.15-2.98.22-1.63-3.19-3.26-6.38-4.89-9.58,6.02-1.7,12.04-3.41,18.07-5.11,14.86-3.25,29-8.53,42.69-15.08,7.47-3.57,14.91-7.2,22.36-10.8-3.97,5.8-3.06,7.88,3.91,8.9Z"/>
  <path class="cls-11" d="m209.85,497.26c-13.8-3.53-27.69-6.77-41.38-10.72-7.96-2.3-15.79-5.34-23.32-8.82-5.79-2.67-11.02-6.54-16.49-9.88.64-.5,1.21-1.2,1.94-1.48,4.48-1.72,4.75-4,1.12-7-.48-.4-.73-1.07-1.08-1.62,1.84.74,3.86,1.2,5.49,2.27,14.22,9.34,30.02,14.99,46.23,19.44,11.67,3.2,23.59,5.52,35.4,8.24-1.97.79-3.97,1.51-5.9,2.39-3.43,1.58-4.97,3.77-2.01,7.18Z"/>
  <path class="cls-5" d="m130.63,457.74c.36.55.6,1.22,1.08,1.62,3.64,3,3.36,5.29-1.12,7-.73.28-1.3.97-1.94,1.48-.31-.08-.61-.15-.92-.21-1.05-.62-2.09-1.23-3.14-1.85-14.24-6.98-27.19-15.81-38.54-26.91-6.63-6.49-13.22-13.03-19.76-19.61-1.03-1.03-1.74-2.38-2.6-3.58.54-3.63-.51-8.14,5.01-9,12.21,15.19,27.37,27.08,43.04,38.35,6.16,4.43,12.58,8.48,18.89,12.71Z"/>
  <path class="cls-11" d="m23.51,147.57c1.28,2.41,2.55,4.83,4.09,7.73,4.62-5.31,1.51-14.65,10.11-16.68-3.49,8.77-7.12,17.49-10.44,26.32-2.44,6.48-4.67,13.06-6.64,19.7-2.45,8.26-4.54,16.63-6.78,24.95-7.08-2.58-7.33-2.46-9.86,4.51-.33.91-.92,1.73-1.4,2.6,1.29-8.14,1.73-16.53,4.05-24.37,4.13-13.95,9.36-27.58,14.24-41.31.46-1.3,1.73-2.31,2.63-3.45Z"/>
  <path class="cls-28" d="m318.73,9.49c8.4,2.86,16.98,5.28,25.14,8.69,10.5,4.38,20.69,9.52,30.97,14.42,1.13.54,1.98,1.68,2.96,2.54-1,3.12-2,6.23-3,9.35-1.97-.7-3.95-1.4-5.92-2.1-1.47-1.07-2.79-2.49-4.42-3.17-14.22-5.97-28.5-11.8-42.75-17.68-1.67-.69-3.33-1.42-4.99-2.13.65-.9,1.12-2.06,1.99-2.64,3.69-2.49,2.96-4.84.02-7.27Z"/>
  <path class="cls-5" d="m209.85,497.26c-2.95-3.41-1.42-5.6,2.01-7.18,1.93-.88,3.93-1.6,5.9-2.39.97.02,1.93.04,2.9.06,2.36.3,4.72.6,7.08.9,1.34.34,2.68.68,4.01,1.02-2.78,8.44-2.14,9.12,6.73,8.2,3.62-.38,7.31-.2,10.96-.24,6.67-.08,7.04-.42,7.29-6.99,1-.34,2-.68,3-1.02,4-.31,8-.62,12-.92,1-.03,2-.07,3-.1,3.33-.29,6.67-.58,10-.87,1-.05,1.99-.1,2.99-.15,1.32-.29,2.64-.57,3.95-.86,1.63,3.19,3.26,6.39,4.89,9.58-.62.06-1.24.12-1.87.18-.66.08-1.31.16-1.97.24-2.94.39-5.87.78-8.81,1.17-1.4.28-2.79.56-4.19.84-2.34.28-4.67.55-7.01.83-.66.05-1.33.1-1.99.15-15.35-.09-30.71-.14-46.06-.31-2.96-.03-5.91-.58-8.87-.88-1.01-.34-2.03-.67-3.04-1.01-.97-.07-1.94-.15-2.92-.22Z"/>
  <path class="cls-10" d="m285.86,2.41c.62.1,1.24.21,1.86.31.31.36.61.72.92,1.08.36,3.13.72,6.27,1.08,9.4-.62-.13-1.25-.25-1.87-.38l-3.1-.26c-3.67-.32-7.35-.63-11.02-.95-1.7-.19-3.4-.39-5.09-.58-1.31-.04-2.62-.08-3.92-.12-3.65-.06-7.3-.12-10.95-.19l-19.93.2c-1.71.16-3.41.33-5.12.49-1.66.08-3.32.17-4.98.25-.02-3.37-.04-6.74-.06-10.12,0,0-.05-.11-.05-.11,3.38-.32,6.75-.64,10.13-.96,2.68-.16,5.37-.32,8.05-.47,5.3.02,10.59.04,15.89.05,4.35.16,8.71.32,13.06.48,5.04.63,10.08,1.25,15.12,1.88Z"/>
  <path class="cls-5" d="m500.53,237.76c.33,6.28,1.22,12.58.86,18.82-.63,10.95-1.98,21.87-3.16,32.79-.19,1.79-1,3.51-1.52,5.26-3.04-.98-6.08-1.97-9.12-2.95.73-12.06,1.49-24.12,2.18-36.19.22-3.97.24-7.95.35-11.92,2.8,1.16,5.6,2.31,8.86,3.66.56-3.44,1.05-6.45,1.53-9.47Z"/>
  <path class="cls-5" d="m2.59,216.69c.47-.86,1.06-1.68,1.4-2.6,2.53-6.96,2.78-7.09,9.86-4.51-.71,9.1-1.64,18.18-2.06,27.29-.4,8.6-.27,17.23-.38,25.85-2.83-3.6-4.42-9.14-10.93-6.97-.16-1.68-.32-3.36-.47-5.04.19-2.37.38-4.73.57-7.1.03-1.99.06-3.98.09-5.98.05-1.33.11-2.66.16-4,.29-2.67.57-5.34.86-8.01.06-1,.12-1.99.18-2.99.24-1.99.49-3.98.73-5.96Z"/>
  <path class="cls-11" d="m472.84,363.68c-2.66,5.49-4.89,11.24-8.07,16.41-4.66,7.58-9.98,14.76-15.06,22.07-.44.64-1.28,1-1.94,1.49-2.44-2.14-3.47-6.51-8.13-5.11,1.15-2.13,2.12-4.37,3.47-6.36,3.11-4.58,6.4-9.04,9.62-13.55,5.01-1.7,7.64-5.34,7.94-11.01.02-.34.03-.68.05-1.02.64-.99,1.29-1.99,1.93-2.98.03-.67.05-1.33.08-2,4.02-2.47,7.57-2.67,10.11,2.07Z"/>
  <path class="cls-25" d="m472.84,363.68c-2.54-4.74-6.09-4.54-10.11-2.07,6.78-13.19,14.11-26.16,16.99-40.97,3.28,1.18,5.83,4.84,10.02,3-4.86,12.5-9.69,25.01-14.63,37.48-.39.99-1.5,1.71-2.27,2.55Z"/>
  <path class="cls-5" d="m439.65,398.54c4.66-1.4,5.69,2.97,8.13,5.11-7.1,11.05-15.84,20.62-26.08,28.83.85-5.09.04-5.89-7.06-6.98,8.34-8.98,16.68-17.97,25.02-26.96Z"/>
  <path class="cls-5" d="m378.7,464.61c-6.96-1.02-7.88-3.1-3.91-8.9,1.37-.92,2.77-1.8,4.11-2.76,8.59-6.14,17.16-12.3,25.74-18.45.41,3.75.83,7.5,1.24,11.25-9.06,6.28-18.12,12.57-27.18,18.85Z"/>
  <path class="cls-17" d="m289.72,13.2c-.36-3.13-.72-6.27-1.08-9.4,1.06-.09,2.13-.18,3.19-.28,8.97,1.99,17.93,3.98,26.9,5.97,2.94,2.43,3.67,4.78-.02,7.27-.86.58-1.33,1.75-1.99,2.65-9-2.07-18-4.14-27-6.21Z"/>
  <path class="cls-11" d="m489.74,323.66c-4.19,1.83-6.73-1.82-10.02-3,1.7-6.88,3.33-13.77,5.12-20.63.74-2.83,1.83-5.57,2.76-8.36,3.04.98,6.08,1.97,9.12,2.95-2.33,9.68-4.65,19.36-6.98,29.03Z"/>
  <path class="cls-28" d="m401.9,51.46c6.6,5.44,13.19,10.88,19.79,16.32,2.54,4.81-2.32,6.62-3.96,9.73-7.1-5.72-14.21-11.44-21.32-17.15-3.22-2.59-6.45-5.16-9.67-7.73,1.23.49,2.5.9,3.68,1.48,5.48,2.65,7.79,2.13,11.47-2.64Z"/>
  <path class="cls-28" d="m500.53,237.76c-.49,3.01-.98,6.03-1.53,9.47-3.26-1.35-6.06-2.5-8.86-3.66-.18-6.96-.35-13.92-.53-20.88.74-1.42,1.66-2.78,2.19-4.28,1.15-3.22,3.44-4.02,6.51-3.47.05.57.1,1.13.16,1.7.09,1,.18,2,.28,2.99.06.97.13,1.94.19,2.9.3,1.7.59,3.39.89,5.09.24,3.38.48,6.76.71,10.13Z"/>
  <path class="cls-17" d="m223.67,1.55c.02,3.37.04,6.74.06,10.12-9.67,1.65-19.33,3.31-29,4.96-1.13-5.33,1.16-8.57,6.52-10.03,2.92-.8,5.64-2.34,8.45-3.55,2.34-.14,4.68-.28,7.02-.43,1.35-.36,2.69-.72,4.04-1.09.97,0,1.94,0,2.91.01Z"/>
  <path class="cls-5" d="m417.73,77.51c1.64-3.11,6.5-4.92,3.96-9.73,5.04,5.26,10.08,10.51,15.12,15.77,1.28,1.38,2.56,2.76,3.84,4.14,0,0,.02.04.02.04-.7,5.96-1.82,6.63-7.2,4.32-1.21-.52-2.46-.97-3.69-1.45-4.02-4.36-8.03-8.72-12.05-13.08Z"/>
  <path class="cls-17" d="m401.9,51.46c-3.68,4.77-5.99,5.29-11.47,2.64-1.19-.57-2.45-.99-3.68-1.48-.66-.34-1.31-.67-1.97-1.01-.35-.33-.69-.66-1.04-.99-1.58-.79-3.17-1.59-4.75-2.38-1.03-.68-2.06-1.35-3.09-2.03-.37-.58-.73-1.16-1.1-1.73,1-3.11,2-6.23,3-9.35.31.15.63.3.94.45.98.69,1.97,1.37,2.95,2.06,3.66,2.12,7.32,4.23,10.98,6.35.67.55,1.34,1.1,2.01,1.65.66.45,1.32.9,1.99,1.35.68.55,1.36,1.09,2.03,1.64.34.38.69.76,1.03,1.14.31.28.63.57.94.86.41.28.82.55,1.24.83Z"/>
  <path class="cls-5" d="m13.8,291.61c-.7,3.51-1.28,7.05-2.18,10.51-.28,1.07-1.43,1.91-2.18,2.86-.83-.89-1.71-1.75-2.48-2.69-.71-.86-1.29-1.82-1.93-2.74-1.21-7.03-2.51-14.04-3.58-21.09-.29-1.9.15-3.9.25-5.85q2.52,7.3,10.34,5.99c.16-.03.33-.02.5-.03.42,4.35.85,8.7,1.27,13.05Z"/>
  <path class="cls-28" d="m12.53,278.56c-.17.01-.33,0-.5.03q-7.83,1.31-10.34-5.99c-.32-3.66-.65-7.31-.97-10.97,0-.66,0-1.33,0-1.99-.09-1.29-.17-2.59-.25-3.88,6.52-2.18,8.11,3.37,10.94,6.97.37,5.28.74,10.56,1.11,15.84Z"/>
  <path class="cls-28" d="m405.89,445.76c-.41-3.75-.83-7.5-1.24-11.25,1.7-1.62,3.4-3.24,5.11-4.86,1.63-1.37,3.26-2.74,4.9-4.11l-.02-.04c7.1,1.09,7.91,1.89,7.06,6.98-5.27,4.43-10.54,8.85-15.8,13.28Z"/>
  <path class="cls-28" d="m257.68.05c-5.3-.02-10.59-.04-15.89-.05,5.3.02,10.59.04,15.89.05Z"/>
  <path class="cls-5" d="m285.86,2.41c-5.04-.63-10.08-1.25-15.12-1.88,5.04.63,10.08,1.25,15.12,1.88Z"/>
  <path class="cls-28" d="m233.74.47c-3.38.32-6.75.64-10.13.96,3.38-.32,6.75-.64,10.13-.96Z"/>
  <path class="cls-11" d="m.57,243.62c-.19,2.37-.38,4.73-.57,7.1.19-2.37.38-4.73.57-7.1Z"/>
  <path class="cls-11" d="m440.66,87.69c-1.28-1.38-2.56-2.76-3.84-4.14,1.28,1.38,2.56,2.76,3.84,4.14Z"/>
  <path class="cls-11" d="m499.82,227.62c-.3-1.7-.59-3.39-.89-5.09.3,1.7.59,3.39.89,5.09Z"/>
  <path class="cls-11" d="m279.73,498.71c1.4-.28,2.79-.56,4.19-.84-1.4.28-2.79.56-4.19.84Z"/>
  <path class="cls-5" d="m291.83,3.53c-1.06.09-2.13.18-3.19.28-.31-.36-.61-.72-.92-1.07,1.37.27,2.74.53,4.11.8Z"/>
  <path class="cls-11" d="m.82,233.65c-.05,1.33-.11,2.66-.16,4,.05-1.33.11-2.66.16-4Z"/>
  <path class="cls-28" d="m220.75,1.54c-1.35.36-2.69.72-4.04,1.09,1.35-.36,2.69-.72,4.04-1.09Z"/>
  <path class="cls-11" d="m212.76,497.48c1.01.34,2.03.67,3.04,1.01-1.01-.34-2.03-.67-3.04-1.01Z"/>
  <path class="cls-11" d="m1.86,222.66c-.06,1-.12,1.99-.18,2.99.06-1,.12-1.99.18-2.99Z"/>
  <path class="cls-11" d="m498.74,219.63c-.09-1-.18-2-.28-2.99.09,1,.18,2,.28,2.99Z"/>
  <path class="cls-28" d="m381.69,37.65c-.98-.69-1.97-1.37-2.95-2.06.98.69,1.97,1.37,2.95,2.06Z"/>
  <path class="cls-11" d="m124.6,465.78c1.05.62,2.09,1.23,3.14,1.85-1.05-.62-2.09-1.23-3.14-1.85Z"/>
  <path class="cls-11" d="m26.73,139.63c-.58,1.01-1.16,2.03-1.74,3.04.58-1.01,1.16-2.03,1.74-3.04Z"/>
  <path class="cls-28" d="m398.7,48.64c-.68-.55-1.36-1.09-2.03-1.64.68.55,1.36,1.09,2.03,1.64Z"/>
  <path class="cls-28" d="m394.68,45.65c-.67-.55-1.34-1.1-2.01-1.65.67.55,1.34,1.1,2.01,1.65Z"/>
  <path class="cls-5" d="m.72,259.64c0,.66,0,1.33,0,1.99,0-.66,0-1.33,0-1.99Z"/>
  <path class="cls-11" d="m292.73,496.71c.66-.08,1.31-.16,1.97-.24-.66.08-1.31.16-1.97.24Z"/>
  <path class="cls-11" d="m270.73,499.69c.66-.05,1.33-.1,1.99-.15-.66.05-1.33.1-1.99.15Z"/>
  <path class="cls-28" d="m400.67,50.64c-.31-.29-.63-.57-.94-.86.31.29.63.57.94.86Z"/>
  <path class="cls-3" d="m409.75,429.65c-1.7,1.62-3.4,3.24-5.11,4.86-8.58,6.15-17.15,12.31-25.74,18.45-1.34.96-2.74,1.84-4.11,2.76-7.45,3.6-14.9,7.23-22.36,10.81-13.69,6.55-27.83,11.83-42.69,15.08-1.15-.38-2.36-.66-3.45-1.18-1.76-.83-4.49-1.51-4.88-2.82-.43-1.45,1.21-3.6,2.14-5.34.52-.98,1.43-1.76,2.17-2.64,1-.33,2.01-.66,3.01-.99,6.74-2.25,13.72-3.96,20.16-6.87,14.02-6.33,28.16-12.59,41.52-20.17,13.29-7.54,24.55-17.93,35.84-28.37,12.97-12,23.29-25.94,33.96-39.72,2.28-2.95,3.7-6.56,5.52-9.87.67-1,1.34-2.01,2.01-3.01,0-.65,0-1.31.01-1.96.66-.68,1.32-1.36,1.98-2.04,0-.65.01-1.31.02-1.96,5.71-5.1,8.05-11.96,9.98-19.04.34-1.65.67-3.3,1.01-4.95.9-1.14,2.28-2.15,2.63-3.45,3.21-11.67,7-23.25,9.16-35.13,3.73-20.52,4.12-41.3,2.14-62.08-.36-3.77-1.19-7.49-1.81-11.23-.56.06-1.11.12-1.67.18,0,1.85-.11,3.71.02,5.55.46,6.29,1.67,12.61,1.37,18.86-.67,14.09-1.72,28.18-3.25,42.2-1.63,14.91-5.65,29.29-11.62,43.09-.67,2.32-1.33,4.65-2,6.97-1.34,2.67-2.68,5.34-4.02,8.01-.33.99-.66,1.98-.99,2.97-1.33,2.01-2.66,4.02-3.98,6.04-6.43,14.62-16.59,26.81-26.05,39.4-9.31,12.4-20.58,22.83-32.91,32.36-17.65,13.64-36.91,24.14-57.41,32.55-7.06,2.9-14.39,5.11-21.6,7.64-2.01.35-4.03.71-6.04,1.06-1,.63-2,1.26-3,1.89-4.74.66-9.48,1.38-14.23,1.96-30.6,3.71-60.87,3.12-90.96-4.9-20.63-5.5-39.99-13.82-58.04-24.76-12.55-7.61-24.52-16.62-35.34-26.53-11.08-10.15-21.46-21.42-30.29-33.55-11.52-15.82-20.86-33.03-27.9-51.6-8.42-22.22-12.44-45.08-14.21-68.54-.83-19.92,1.29-39.67,5.75-58.96,3.32-14.36,8.68-28.26,13.51-42.24,1.16-3.36,3.83-6.21,5.84-9.27,1.45-2.22,3.29-4.25,4.39-6.63,9.12-19.6,22.41-36.4,37.75-51.1,11.76-11.26,25.65-20.44,39.18-29.68,20.61-14.08,43.85-22.34,67.99-27.98,27.83-6.5,55.82-4.9,83.79-.79,4.27.63,8.66.79,12.79,1.91,7.85,2.15,15.67,4.52,23.29,7.38,10.57,3.96,21.39,7.61,31.28,12.94,12.1,6.52,23.34,14.62,34.93,22.08,3.07,1.97,6.04,4.1,9.06,6.15.39-.42.77-.83,1.16-1.25-.96-1.31-1.69-2.93-2.92-3.88-7.13-5.48-14.36-10.82-21.58-16.17-10.02-7.42-20.09-14.77-30.07-22.25-.86-.64-1.2-1.98-2.39-4.07,2.68.25,4.17.11,5.45.56,4.85,1.74,9.57,3.86,14.45,5.46,2,.66,4.31.38,6.48.53,1.97.7,3.94,1.4,5.92,2.1.37.58.73,1.16,1.1,1.74.13,2.05.53,3.68,3.09,2.03,1.58.79,3.17,1.59,4.75,2.38.35.33.69.66,1.04.99.66.34,1.31.67,1.97,1.01,3.22,2.58,6.45,5.15,9.67,7.73,7.11,5.71,14.21,11.44,21.32,17.15,4.02,4.36,8.03,8.72,12.05,13.08,3.6,4.72,7.06,9.57,10.83,14.15,17.81,21.6,29.8,46.32,37.92,72.85,4.02,13.12,6.09,26.82,9.13,40.24.38,1.68,1.28,3.24,1.94,4.85.17,6.96.35,13.92.53,20.88-.11,3.97-.13,7.95-.35,11.92-.68,12.06-1.44,24.12-2.18,36.19-.93,2.78-2.02,5.52-2.76,8.36-1.79,6.85-3.42,13.75-5.12,20.63-2.89,14.81-10.22,27.77-16.99,40.97-.03.67-.05,1.33-.08,2-.64.99-1.29,1.99-1.93,2.98-.02.34-.03.68-.05,1.02-2.65,3.67-5.29,7.34-7.94,11.01-3.22,4.51-6.51,8.97-9.62,13.55-1.35,1.99-2.32,4.23-3.47,6.36-8.34,8.98-16.68,17.97-25.02,26.95,0,0,.02.04.02.04-1.63,1.37-3.26,2.74-4.9,4.11ZM201.75,50.65c1.67-.34,3.33-.69,5-1.03,5.21-.51,10.45-.87,15.63-1.58,3.2-.44,6.33-1.41,9.49-2.15.63-.05,1.25-.1,1.88-.15l2.99-.33c8.33,0,16.66,0,24.99,0,1,.04,2.01.08,3.01.12l14.92,1.24c.81.53,1.56,1.36,2.44,1.54,6.81,1.43,13.63,2.89,20.5,4,2.8.45,5.74.08,8.62.08.09-.62.17-1.25.26-1.87-5.19-.99-10.38-1.97-15.57-2.96-27.91-7.22-55.97-7.36-84.15-1.81-4.34.96-8.69,1.92-13.03,2.89-3.13.8-6.26,1.61-9.39,2.41.14.64.29,1.27.43,1.91,4.1.09,8.27.75,11.97-2.31Zm152.13,22.77c3.62,1.76,7.24,3.51,10.86,5.27.55.81.93,1.84,1.67,2.39,6.08,4.53,12.23,8.98,18.39,13.4.24.17.82-.13,2.45-.44-7.62-6.9-13.83-14.06-22.7-18.07-5.92-3.48-11.84-6.96-17.75-10.44-1.32-.53-2.64-1.06-3.95-1.59-.32.66-.64,1.33-.96,1.99,1.7,1.1,3.4,2.2,5.1,3.3.28.11.56.22.84.35,2.02,1.28,4.04,2.56,6.07,3.84ZM76.77,147.75l-1.92-.45c-.61.74-1.34,1.41-1.8,2.23-4.55,8.1-9.09,16.2-13.55,24.35-.8,1.47-1.24,3.14-1.84,4.71,1.95.64,4.06,2.11,5.83,1.77,5.03-.96,6.39,1.36,6.21,5.66-.1,2.48-.17,5-.59,7.44-2.42,14.05-5.03,28.06-7.39,42.12-.62,3.71-1.36,6.7-5.83,7.51-1.43.26-2.97,2.06-3.74,3.53-3.58,6.86-3.79,14.3-3.45,21.85.18,4.03,1.51,6.62,5.89,7.28,1.37.21,3.49,1.52,3.67,2.59,1.48,8.74,6.21,16.9,4.52,26.23-.84,4.63.79,8.4,4.87,11.2,1.35.93,2.14,2.86,2.86,4.48,1.33,3.02,2.28,6.21,3.64,9.21,2.14,4.73,4.28,9.16,1.95,14.71-1.6,3.82-1.05,7.91.78,12.05,1.53,3.46,1.72,7.56,2.22,11.41.36,2.76.85,5.27,4.37,4.49,7.24-1.6,12.75.98,18.88,4.99,5.45,3.56,6.71,7.21,6.48,12.96-.29,7.52,3.18,11.27,10.68,12.53,5.09.85,10.19,1.59,15.3,2.36,3.78.57,6.09,2.27,5.8,6.58-.53,7.99.5,9.03,8.7,9.08,8.83.06,17.67-.07,26.5.08,4.91.09,8.65,3.77,8.05,7.48-1.1,6.76-.57,7.41,6.33,7.44,8.8.05,17.47-.17,25.96,3.55,5.04,2.21,10.94,2.72,16.53,3.37,12.7,1.47,25.42,2.77,38.17,3.67,4.49.32,9.85.61,13.4-1.49,3.37-1.99,6.27-3.14,9.98-3.12,9.15.04,18.22.15,27.08-3.22,4.98-1.9,10.48-2.8,15.82-3.28,4.32-.39,7.75-1.83,9.07-5.73,1.68-4.98,2.8-10.22,3.46-15.44.74-5.86,3.99-8.64,9.78-8.83,3.2-.11,6.6-1.61,9.41-3.31,2.33-1.4,3.82-4.12,5.86-6.07,5.94-5.67,10.06-14.03,20.28-13.48,1.23.07,2.77-1.64,3.82-2.83,6.28-7.07,11.03-15.27,16.56-22.81,7.25-9.88,9.16-20.28,9.48-31.73.06-2.2.73-4.74,1.99-6.49,3.12-4.34,4.82-9.99,10.68-12.05.93-.33,1.76-2.09,1.92-3.29.89-6.75,2.12-13.53,2.21-20.31.28-21.33.07-42.66.14-63.99.01-3.65-.12-6.92-3.9-8.96-.9-.49-1.74-2.29-1.59-3.35,1.2-8.31-3.14-15.18-5.72-22.46-1.2-3.38-2.37-7.35-4.88-9.57-5.95-5.27-7.66-11.8-7.93-19.17-.26-6.83-1.55-8.51-8.16-10.6-1.27-.4-2.59-.64-3.86-1.03-5.24-1.62-6.66-4.6-5.12-9.98.3-1.07-.03-2.76-.75-3.59-1.81-2.12-4.11-3.81-6-5.87-3.61-3.94-9.77-7.84-10.03-12.06-.53-8.68-5.52-12.3-11.58-16.02-.28-.17-.57-.37-.78-.62-4.48-5.34-9.99-7.76-17.12-7.05-1.85.19-3.91-1.86-5.89-2.84-2.01-.99-3.95-2.45-6.07-2.79-4.42-.71-8.93-.94-13.41-1.12-3.12-.13-4.58-1.31-5.49-4.5-.74-2.62-2.6-5.59-4.84-6.96-3.1-1.9-6.97-3.01-10.62-3.42-4.11-.46-6.77-1.02-6.02-6.15.18-1.27-1.71-3.97-2.91-4.14-10.34-1.44-20.72-2.93-31.13-3.41-6.9-.32-13.87,1.09-20.82,1.52-4.24.26-8.66-.76-11.64,3.86-.68,1.05-3.36,1.09-5.13,1.12-6.5.13-13,.11-19.5.04-3.34-.04-5.77.6-6.4,4.61-.23,1.44-2,3.54-3.32,3.74-7.01,1.08-14.1,2.25-21.16,2.2-4.45-.03-6.57,1.25-8.49,5.06-1.29,2.56-3.88,4.67-6.29,6.42-3.15,2.28-6.65,4.11-10.11,5.93-1.52.8-3.38,1.69-4.95,1.5-3.39-.41-6.68-1.67-10.06-2.24-1.48-.25-3.25.02-4.62.63-2.54,1.13-5,2.52-7.3,4.09-4.85,3.32-7.4,9.12-14.02,10.94-3.5.96-6.08,5.77-8.76,9.09-1.51,1.87-3.02,4.13-3.45,6.41-1.98,10.47-3.82,12.26-14.43,12.73-4.52.2-5.34,1.82-3.48,6.24,1.23,2.92,2.61,5.97-1.25,8.32-.67.41-.94,1.95-.89,2.95.34,7.41-.91,14.45-4.85,20.82-.95,1.54-2.37,2.79-3.58,4.18-.59-.23-1.18-.46-1.77-.7,1.69-8.27,3.38-16.54,5.07-24.81Zm390.65,55.06c.68-.17,1.36-.34,2.04-.51-.11-2.01-.09-4.04-.34-6.04-1.89-14.94-8.38-28.4-14.71-41.68-5.33-11.2-12.31-21.68-19.21-32.05-5.96-8.97-12.73-17.42-19.34-25.95-2.32-2.99-4.92-6.03-9.65-5.7,13.62,16.78,27.96,32.91,38.48,51.8,10.5,18.85,17.3,39.23,22.73,60.14ZM154.24,68.71c-.49-.73-.97-1.46-1.46-2.19-17.27,6.44-29.78,19.57-42.68,32.16,14.71-9.99,29.43-19.98,44.14-29.97Z"/>
  <path class="cls-25" d="m368.88,42.38c-2.17-.15-4.48.13-6.48-.53-4.89-1.61-9.61-3.72-14.45-5.46-1.28-.46-2.77-.31-5.45-.56,1.19,2.08,1.53,3.42,2.39,4.07,9.98,7.47,20.05,14.83,30.07,22.25,7.23,5.35,14.46,10.69,21.58,16.17,1.24.95,1.96,2.57,2.92,3.88-.39.42-.77.83-1.16,1.25-3.02-2.05-5.99-4.18-9.06-6.15-11.59-7.46-22.83-15.56-34.93-22.08-9.88-5.33-20.71-8.98-31.28-12.94-7.62-2.86-15.44-5.23-23.29-7.38-4.13-1.13-8.52-1.29-12.79-1.91-27.97-4.11-55.97-5.7-83.79.79-24.14,5.64-47.38,13.9-67.99,27.98-13.53,9.24-27.42,18.42-39.18,29.68-15.35,14.69-28.63,31.5-37.75,51.1-1.1,2.38-2.94,4.41-4.39,6.63-2.01,3.06-4.68,5.91-5.84,9.27-4.83,13.97-10.19,27.88-13.51,42.24-4.47,19.29-6.58,39.04-5.75,58.96-1,1.71-2.72,3.37-2.84,5.15-.24,3.44.38,6.94.72,10.41,3.1,31.38,12.22,60.78,28.93,87.67,5.68,9.14,10.45,19.08,17.43,27.1,10.87,12.5,22.87,24.09,35.1,35.29,14.72,13.5,32.33,22.79,50.32,31.13,12.81,5.94,26.11,10.52,40.06,13.51,14.85,3.17,29.73,5.77,44.86,6.05,21.01.38,41.89-1.18,62.38-6.31-.74.87-1.64,1.65-2.17,2.64-.93,1.74-2.58,3.9-2.14,5.34.4,1.32,3.12,1.99,4.88,2.82,1.09.52,2.3.79,3.45,1.18-6.02,1.7-12.04,3.41-18.07,5.11-1.32.29-2.64.58-3.95.86-1,.05-1.99.1-2.99.15-3.33.29-6.67.58-10,.87-1,.03-2,.07-3,.1-4,.31-8,.62-12,.92-1.37.05-2.75.1-4.12.15-7.95-.04-15.91-.07-23.86-.11-1.34-.34-2.68-.68-4.01-1.02-2.36-.3-4.72-.6-7.08-.9-.97-.02-1.93-.04-2.9-.06-11.81-2.71-23.72-5.03-35.4-8.24-16.22-4.45-32.02-10.1-46.23-19.44-1.63-1.07-3.65-1.53-5.49-2.27-6.3-4.22-12.73-8.28-18.89-12.71-15.68-11.28-30.84-23.17-43.04-38.35-3.82-4.98-7.39-10.17-11.5-14.89-7.6-8.71-14.04-18.01-18.38-28.82-4.32-10.76-9.84-21.08-13.61-32.01-3.83-11.09-6.12-22.71-9.17-34.08-.49-1.82-1.48-3.51-2.23-5.26-.42-4.35-.84-8.7-1.27-13.05-.37-5.28-.74-10.56-1.12-15.84.1-8.62-.03-17.25.37-25.85.42-9.11,1.35-18.19,2.06-27.29,2.24-8.32,4.33-16.69,6.78-24.95,1.97-6.64,4.21-13.21,6.64-19.7,3.32-8.83,6.94-17.55,10.44-26.32,10.71-18.78,23.06-36.39,37.9-52.16,3.97-4.22,8.36-8.02,12.47-12.11,1.73-1.73,3.22-3.7,4.83-5.56,2.28-1.72,4.56-3.44,6.83-5.17,1.09-.92,2.18-1.84,3.26-2.75,10.9-6.94,21.55-14.32,32.76-20.72,17.5-10,36.07-17.58,55.76-22.24,1.11-.26,2.14-.84,3.21-1.27,9.67-1.65,19.33-3.31,29-4.96,1.66-.08,3.32-.17,4.98-.25,1.71-.16,3.41-.33,5.12-.49,6.64-.07,13.29-.13,19.93-.2,3.65.06,7.3.12,10.95.19,1.31.04,2.62.08,3.92.12,1.7.19,3.4.39,5.1.58,3.67.32,7.35.63,11.02.95,1.03.09,2.07.17,3.1.26.62.13,1.25.26,1.87.38,9,2.07,18,4.14,27,6.21,1.66.71,3.32,1.43,4.99,2.12,14.26,5.88,28.53,11.71,42.75,17.68,1.63.68,2.95,2.1,4.42,3.17Z"/>
  <path class="cls-5" d="m103,60.86c-1.09.92-2.18,1.84-3.26,2.75,1.09-.92,2.18-1.84,3.26-2.75Z"/>
  <path class="cls-28" d="m231.75,489.67c7.95.04,15.91.07,23.86.11.37.29.75.58,1.12.87-.25,6.57-.62,6.92-7.29,6.99-3.66.04-7.34-.14-10.96.24-8.87.92-9.51.24-6.73-8.2Z"/>
  <path class="cls-11" d="m220.66,487.75c2.36.3,4.72.6,7.08.9-2.36-.3-4.72-.6-7.08-.9Z"/>
  <path class="cls-11" d="m256.73,490.64c-.37-.29-.75-.58-1.12-.87,1.37-.05,2.75-.1,4.12-.15-1,.34-2,.68-3,1.02Z"/>
  <path class="cls-11" d="m271.73,488.7c1-.03,2-.07,3-.1-1,.03-2,.07-3,.1Z"/>
  <path class="cls-11" d="m284.73,487.73c1-.05,1.99-.1,2.99-.15-1,.05-1.99.1-2.99.15Z"/>
  <path class="cls-5" d="m264.71,10.91c-3.65-.06-7.3-.12-10.95-.19,3.65.06,7.3.12,10.95.19Z"/>
  <path class="cls-5" d="m233.83,10.93c-1.71.16-3.41.33-5.12.49,1.71-.16,3.41-.33,5.12-.49Z"/>
  <path class="cls-5" d="m273.73,11.61c-1.7-.19-3.4-.39-5.1-.58,1.7.19,3.4.39,5.1.58Z"/>
  <path class="cls-17" d="m287.85,12.82c-1.03-.09-2.07-.17-3.1-.26,1.03.09,2.07.17,3.1.26Z"/>
  <path class="cls-25" d="m452.74,378.63c2.65-3.67,5.29-7.34,7.94-11.01-.3,5.66-2.93,9.31-7.94,11.01Z"/>
  <path class="cls-25" d="m460.72,366.6c.64-.99,1.29-1.99,1.93-2.98-.64.99-1.29,1.99-1.93,2.98Z"/>
  <path class="cls-25" d="m378.98,48.25c-2.56,1.65-2.96.02-3.09-2.03,1.03.67,2.06,1.35,3.09,2.03Z"/>
  <path class="cls-25" d="m384.78,51.62c-.35-.33-.69-.66-1.04-.99.35.33.69.66,1.04.99Z"/>
  <path class="cls-5" d="m409.75,429.65c1.63-1.37,3.27-2.74,4.9-4.11-1.63,1.37-3.27,2.74-4.9,4.11Z"/>
  <path class="cls-12" d="m76.77,147.75c-1.69,8.27-3.38,16.54-5.07,24.81.59.23,1.18.46,1.77.7,1.21-1.38,2.62-2.64,3.58-4.18,3.94-6.37,5.19-13.41,4.85-20.82-.05-1,.23-2.54.89-2.95,3.86-2.36,2.48-5.41,1.25-8.32-1.87-4.42-1.05-6.04,3.48-6.24,10.61-.48,12.44-2.26,14.43-12.73.43-2.29,1.94-4.54,3.45-6.41,2.68-3.32,5.26-8.13,8.76-9.09,6.62-1.82,9.17-7.62,14.02-10.94,2.3-1.57,4.76-2.96,7.3-4.09,1.38-.61,3.15-.88,4.62-.63,3.39.57,6.67,1.83,10.06,2.24,1.58.19,3.43-.7,4.95-1.5,3.46-1.82,6.96-3.65,10.11-5.93,2.41-1.75,4.99-3.86,6.29-6.42,1.93-3.81,4.04-5.09,8.49-5.06,7.06.05,14.15-1.12,21.16-2.2,1.32-.2,3.09-2.31,3.32-3.74.63-4.02,3.06-4.65,6.4-4.61,6.5.07,13,.09,19.5-.04,1.77-.03,4.45-.07,5.13-1.12,2.98-4.62,7.39-3.6,11.64-3.86,6.95-.43,13.92-1.84,20.82-1.52,10.41.49,20.79,1.98,31.13,3.41,1.2.17,3.1,2.87,2.91,4.14-.74,5.13,1.91,5.69,6.02,6.15,3.66.41,7.52,1.52,10.62,3.42,2.24,1.37,4.1,4.34,4.84,6.96.91,3.2,2.36,4.38,5.49,4.5,4.48.18,8.99.41,13.41,1.12,2.12.34,4.07,1.8,6.07,2.79,1.98.98,4.04,3.02,5.89,2.84,7.13-.72,12.64,1.71,17.12,7.05.21.25.5.45.78.62,6.06,3.72,11.05,7.34,11.58,16.02.26,4.21,6.42,8.12,10.03,12.06,1.89,2.06,4.19,3.75,6,5.87.71.83,1.05,2.52.75,3.59-1.53,5.38-.12,8.36,5.12,9.98,1.27.39,2.59.63,3.86,1.03,6.61,2.09,7.9,3.77,8.16,10.6.28,7.37,1.98,13.89,7.93,19.17,2.5,2.22,3.68,6.19,4.88,9.57,2.58,7.29,6.92,14.15,5.72,22.46-.15,1.05.68,2.86,1.59,3.35,3.78,2.04,3.92,5.31,3.9,8.96-.07,21.33.14,42.67-.14,63.99-.09,6.78-1.32,13.55-2.21,20.31-.16,1.2-.99,2.96-1.92,3.29-5.86,2.05-7.55,7.71-10.68,12.05-1.26,1.75-1.93,4.29-1.99,6.49-.32,11.45-2.22,21.84-9.48,31.73-5.53,7.54-10.28,15.74-16.56,22.81-1.05,1.19-2.59,2.89-3.82,2.83-10.21-.55-14.34,7.81-20.28,13.48-2.04,1.95-3.54,4.67-5.86,6.07-2.81,1.7-6.21,3.2-9.41,3.31-5.79.19-9.03,2.98-9.78,8.83-.66,5.22-1.78,10.46-3.46,15.44-1.32,3.91-4.75,5.34-9.07,5.73-5.34.48-10.84,1.39-15.82,3.28-8.86,3.37-17.93,3.26-27.08,3.22-3.71-.02-6.61,1.13-9.98,3.12-3.54,2.1-8.91,1.8-13.4,1.49-12.75-.91-25.47-2.2-38.17-3.67-5.59-.65-11.49-1.16-16.53-3.37-8.48-3.73-17.16-3.51-25.96-3.55-6.91-.04-7.43-.68-6.33-7.44.6-3.71-3.13-7.4-8.05-7.48-8.83-.15-17.66-.02-26.5-.08-8.2-.06-9.24-1.09-8.7-9.08.29-4.32-2.02-6.01-5.8-6.58-5.1-.77-10.21-1.51-15.3-2.36-7.5-1.26-10.97-5.01-10.68-12.53.22-5.75-1.03-9.4-6.48-12.96-6.13-4-11.64-6.59-18.88-4.99-3.52.78-4.01-1.73-4.37-4.49-.5-3.85-.69-7.95-2.22-11.41-1.83-4.13-2.38-8.23-.78-12.05,2.33-5.54.19-9.98-1.95-14.71-1.36-3-2.31-6.19-3.64-9.21-.71-1.62-1.51-3.55-2.86-4.48-4.08-2.8-5.7-6.57-4.87-11.2,1.69-9.33-3.04-17.49-4.52-26.23-.18-1.08-2.3-2.38-3.67-2.59-4.38-.66-5.71-3.25-5.89-7.28-.33-7.55-.12-14.99,3.45-21.85.77-1.47,2.3-3.27,3.74-3.53,4.47-.81,5.2-3.8,5.83-7.51,2.36-14.06,4.96-28.07,7.39-42.12.42-2.44.48-4.95.59-7.44.18-4.3-1.18-6.63-6.21-5.66-1.76.34-3.87-1.13-5.83-1.77.6-1.58,1.04-3.25,1.84-4.71,4.46-8.15,9-16.25,13.55-24.35.46-.82,1.19-1.49,1.8-2.23l1.92.45Zm148.84-27.4c.76-.23,1.51-.47,2.27-.7,2.21-.25,4.42-.51,6.62-.76.75-.01,1.51-.03,2.26-.04,1.14.58,2.25,1.61,3.41,1.67,16.4.78,32.8,1.62,49.21,2.02,7.87.19,13.14-7.36,11.18-15.12.02-.5.03-1,.05-1.51.6-4.46-1.02-7.97-5.16-9.67-5.35-2.2-10.91-3.74-16.74-1.55-1.99.32-3.99.65-5.98.97-1.32-.28-2.65-.56-3.97-.83-1.48-2.56-2.83-2.64-4.03.21-7.52-.06-15.04-.12-22.57-.18-4.46-1.13-8.89-4.39-13.43-.21l-5.04,1.92-1.96.19c-2.3.19-4.6.37-6.89.56-.58.08-1.16.17-1.75.25-.76-.27-1.52-.54-2.28-.81-2.63-1.58-4.28-.83-4.99,2.11-1,.94-1.99,1.87-2.99,2.81-2.97.43-5.47,1.99-4.61,5.09.78,2.83,2.99,5.27,4.57,7.88.04.26.05.53.03.8.24,5.48,4.83,6.63,8.63,7.58,4.17,1.05,8.97,2.06,12.29-2.48.63-.06,1.25-.12,1.88-.19Zm88.21-9.66c-2.77,3.27-7.72,6.38-4.44,11.17,2.65,3.87,6.7,7.71,10.98,9.34,11.51,4.38,23.48,7.57,35.26,11.25,3.16.99,6.29,2.04,9.44,3.06l4.66.06c1.05.29,2.09.58,3.14.86,1.85.02,3.71.04,5.56.06,6.04-.07,7.58-1.81,9.43-7.37,2.39-7.22-1.87-13.39-8.01-16.52-5.7-2.91-11.22-6.2-16.83-9.3-2.03-1.12-3.98-2.58-6.16-3.22-9.53-2.79-19.11-5.4-28.71-7.96-7.57-2.02-12.99,1.3-14.35,8.58h.02Zm-181.09,144.36c-.3.04-.6.07-.9.11,1.02,8.38,1.29,16.95,3.29,25.09,1.93,7.86,6.46,15.07,8.41,22.92,3.16,12.7,11.87,20.8,21.16,28.68,5.07,4.3,10.45,8.25,15.38,12.71,17.81,16.11,39.8,21.37,62.67,23.9,6.69.74,13.6-.69,20.41-.78,13.42-.18,25.74-4.83,37.75-9.88,8.34-3.51,16-8.74,23.73-13.57,2.9-1.81,5.26-4.55,7.67-7.05,2.88-2.99,5.4-6.32,8.32-9.27,6.98-7.02,12.66-14.71,16.27-24.16,3.42-8.94,8.17-17.36,12.23-26.06.76-1.63,1.53-3.48,1.48-5.21-.3-11.46-1.1-22.92-1.2-34.38-.16-18.56-9.27-34.13-16.3-50.4-.7-1.63-2.1-2.96-3.21-4.4-4.55-5.91-9.07-11.85-13.72-17.69-1.52-1.91-3.2-3.83-5.17-5.24-4.99-3.58-10.18-6.89-15.31-10.27-5.14-3.38-9.97-7.47-15.52-9.94-16.29-7.27-33.65-10.08-51.4-10.47-3.97-.09-8.06.12-11.9,1.02-11.77,2.76-23.83,4.91-35.07,9.18-13.93,5.29-25.33,14.89-35.65,25.71-9.81,10.29-19.37,20.55-23.48,34.76-1.16,4.01-4.35,7.39-6.13,11.28-1.61,3.51-3.48,7.28-3.64,11.01-.49,10.78-.17,21.59-.17,32.39Zm38.44-149.29c-.69.09-2.8-.03-4.62.64-9.96,3.65-20.1,6.96-29.68,11.46-7.1,3.33-14.03,7.62-19.96,12.73-5.88,5.06-3.16,14.13,4.44,16.01,3.49.86,7.76.75,11.11-.47,9.8-3.57,19.28-8.03,28.97-11.92,5.24-2.11,10.75-3.54,15.97-5.69,6.44-2.65,8.34-6.68,7.02-13.62-1.08-5.66-5.56-9.09-13.25-9.13Z"/>
  <path class="cls-11" d="m305.72,469.62c-20.49,5.13-41.38,6.69-62.38,6.31-15.14-.27-30.02-2.87-44.86-6.05-13.95-2.98-27.25-7.56-40.06-13.51-17.98-8.34-35.59-17.63-50.32-31.13-12.23-11.21-24.23-22.8-35.1-35.29-6.97-8.02-11.75-17.97-17.43-27.1-16.71-26.88-25.84-56.29-28.93-87.67-.34-3.47-.96-6.97-.72-10.41.12-1.77,1.84-3.43,2.84-5.15,1.77,23.46,5.79,46.33,14.21,68.54,7.04,18.56,16.38,35.77,27.9,51.6,8.83,12.13,19.22,23.4,30.29,33.55,10.82,9.92,22.79,18.92,35.34,26.53,18.05,10.95,37.4,19.26,58.04,24.76,30.08,8.02,60.35,8.61,90.96,4.9,4.75-.58,9.49-1.3,14.23-1.96,1-.63,2-1.26,3-1.89,2.01-.35,4.03-.71,6.04-1.06-.01,1.34-.03,2.69-.04,4.03-1,.33-2.01.66-3.01.99Z"/>
  <path class="cls-25" d="m308.73,468.63c.01-1.34.02-2.69.04-4.03,7.21-2.53,14.54-4.74,21.6-7.64,20.5-8.41,39.76-18.91,57.41-32.55,12.33-9.53,23.6-19.96,32.91-32.36,9.46-12.59,19.61-24.78,26.05-39.4,1.01.67,2.02,1.35,3.03,2.02,0,.65-.01,1.31-.02,1.96-.66.68-1.32,1.36-1.98,2.04,0,.65,0,1.31-.01,1.96-.67,1-1.34,2.01-2.01,3.01-1.82,3.31-3.24,6.92-5.52,9.87-10.66,13.78-20.99,27.72-33.96,39.72-11.29,10.44-22.55,20.83-35.84,28.37-13.36,7.58-27.5,13.83-41.52,20.17-6.44,2.91-13.42,4.62-20.16,6.87Z"/>
  <path class="cls-21" d="m467.43,202.81c-5.42-20.91-12.23-41.29-22.73-60.14-10.52-18.89-24.86-35.02-38.48-51.8,4.73-.33,7.33,2.71,9.65,5.7,6.61,8.53,13.38,16.98,19.34,25.95,6.89,10.37,13.87,20.85,19.21,32.05,6.33,13.29,12.82,26.74,14.71,41.68.25,2,.23,4.03.34,6.04-.68.17-1.36.34-2.04.51Z"/>
  <path class="cls-21" d="m457.73,328.65c5.96-13.8,9.99-28.18,11.62-43.09,1.53-14.02,2.59-28.11,3.25-42.2.3-6.25-.92-12.57-1.37-18.86-.13-1.84-.02-3.7-.02-5.55.56-.06,1.11-.12,1.67-.18.62,3.74,1.45,7.46,1.81,11.23,1.98,20.78,1.59,41.57-2.14,62.08-2.16,11.87-5.95,23.46-9.16,35.13-.36,1.29-1.73,2.3-2.63,3.44-1.01-.67-2.01-1.34-3.02-2.02Z"/>
  <path class="cls-6" d="m279.66,46.76c-4.97-.41-9.95-.83-14.92-1.24-1-.04-2.01-.08-3.01-.12-8.33,0-16.66,0-24.99,0-1,.11-1.99.22-2.99.32-.63.05-1.25.1-1.88.15-6.74.43-13.48.85-20.22,1.27.04-.47.08-.94.12-1.41,28.18-5.55,56.24-5.42,84.15,1.81-1.88.09-3.78.34-5.65.22-3.54-.23-7.07-.67-10.61-1.02Z"/>
  <path class="cls-23" d="m154.24,68.71c-14.71,9.99-29.43,19.98-44.14,29.97,12.9-12.58,25.41-25.71,42.68-32.16.49.73.97,1.46,1.46,2.19Z"/>
  <path class="cls-23" d="m364.53,75.97c8.87,4.01,15.08,11.17,22.7,18.07-1.63.31-2.21.61-2.45.44-6.16-4.43-12.3-8.87-18.39-13.4-.74-.55-1.12-1.58-1.67-2.39-.07-.9-.13-1.81-.2-2.71Z"/>
  <path class="cls-23" d="m279.66,46.76c3.54.35,7.07.79,10.61,1.02,1.87.12,3.76-.14,5.65-.22,5.19.99,10.38,1.97,15.57,2.96-.09.62-.17,1.25-.26,1.87-2.88,0-5.82.38-8.62-.08-6.87-1.11-13.68-2.57-20.5-4-.88-.19-1.63-1.01-2.44-1.54Z"/>
  <path class="cls-21" d="m449.76,354.66c-1.01-.67-2.02-1.35-3.03-2.02,1.33-2.01,2.66-4.02,3.98-6.04.96-.02,1.93-.03,2.89-.05-.63-.97-1.26-1.95-1.89-2.92,1.34-2.67,2.68-5.34,4.02-8.01,1.34,0,2.67,0,4.01,0-1.93,7.08-4.27,13.95-9.99,19.04Z"/>
  <path class="cls-18" d="m364.53,75.97c.07.9.13,1.81.2,2.71-3.62-1.76-7.24-3.51-10.86-5.27-2.02-1.28-4.04-2.56-6.07-3.84-.28-.12-.56-.24-.84-.34-.06-1.23-.12-2.47-.19-3.7l17.75,10.44Z"/>
  <path class="cls-23" d="m211.64,47.16c6.74-.43,13.48-.85,20.22-1.28-3.16.73-6.29,1.71-9.49,2.15-5.19.71-10.42,1.07-15.63,1.58,1.63-.82,3.27-1.63,4.9-2.45Z"/>
  <path class="cls-23" d="m201.75,50.65c-3.7,3.05-7.87,2.4-11.97,2.31-.14-.64-.29-1.27-.43-1.91,3.13-.8,6.26-1.61,9.39-2.41,1,.67,2.01,1.34,3.01,2.01Z"/>
  <path class="cls-18" d="m201.75,50.65c-1-.67-2.01-1.34-3.01-2.01,4.34-.96,8.69-1.92,13.04-2.89-.04.47-.08.94-.12,1.41-1.64.82-3.27,1.64-4.91,2.46-1.67.34-3.33.69-5,1.03Z"/>
  <path class="cls-25" d="m459.74,335.62c-1.34,0-2.67,0-4.01,0,.67-2.32,1.33-4.65,2-6.97,1.01.67,2.01,1.34,3.02,2.02-.34,1.65-.67,3.3-1.01,4.95Z"/>
  <path class="cls-23" d="m346.78,65.53c.06,1.23.12,2.47.19,3.7-1.7-1.1-3.4-2.2-5.1-3.3.32-.66.64-1.33.96-1.99,1.32.53,2.64,1.06,3.95,1.59Z"/>
  <path class="cls-25" d="m451.71,343.63c.63.97,1.26,1.95,1.89,2.92-.96.02-1.93.03-2.89.05.33-.99.66-1.98.99-2.97Z"/>
  <path class="cls-23" d="m347.81,69.58c2.02,1.28,4.04,2.56,6.07,3.84-2.02-1.28-4.04-2.56-6.07-3.84Z"/>
  <path class="cls-25" d="m302.73,465.66c-1,.63-2,1.26-3,1.89,1-.63,2-1.26,3-1.89Z"/>
  <path class="cls-23" d="m233.74,45.73c1-.11,1.99-.22,2.99-.32-1,.11-1.99.22-2.99.32Z"/>
  <path class="cls-23" d="m261.73,45.4c1,.04,2.01.08,3.01.12-1-.04-2.01-.08-3.01-.12Z"/>
  <path class="cls-21" d="m445.73,363.64c.67-1,1.34-2.01,2.01-3.01-.67,1-1.34,2.01-2.01,3.01Z"/>
  <path class="cls-21" d="m447.75,358.66c.66-.68,1.32-1.36,1.98-2.04-.66.68-1.32,1.36-1.98,2.04Z"/>
  <path class="cls-3" d="m132.74,255.05c0-10.8-.31-21.61.17-32.39.17-3.73,2.03-7.5,3.64-11.01,1.78-3.89,4.97-7.27,6.13-11.28,4.11-14.21,13.67-24.47,23.48-34.76,10.32-10.83,21.72-20.42,35.65-25.71,11.23-4.27,23.29-6.42,35.07-9.18,3.84-.9,7.94-1.11,11.9-1.02,17.75.4,35.11,3.2,51.4,10.47,5.55,2.48,10.38,6.56,15.52,9.94,5.13,3.38,10.32,6.69,15.31,10.27,1.97,1.41,3.65,3.32,5.17,5.24,4.65,5.84,9.16,11.78,13.72,17.69,1.11,1.44,2.51,2.78,3.21,4.4,7.02,16.28,16.14,31.84,16.3,50.4.1,11.46.9,22.92,1.2,34.38.05,1.73-.72,3.59-1.48,5.21-4.06,8.7-8.82,17.12-12.23,26.06-3.61,9.44-9.29,17.13-16.27,24.16-2.92,2.94-5.45,6.28-8.32,9.27-2.41,2.51-4.77,5.24-7.67,7.05-7.73,4.83-15.39,10.06-23.73,13.57-12.01,5.05-24.33,9.7-37.75,9.88-6.81.09-13.72,1.52-20.41.78-22.87-2.53-44.86-7.79-62.67-23.9-4.93-4.46-10.31-8.41-15.38-12.71-9.29-7.88-18-15.98-21.16-28.68-1.95-7.85-6.48-15.07-8.41-22.92-2-8.14-2.26-16.71-3.29-25.09.3-.04.6-.07.9-.11Zm36.99-84.45l-2.98,1.11c-.98.98-1.95,1.96-2.93,2.94-3.7,1.06-3.61,4.15-4.14,7.16-.8,4.5-1.58,9.13-3.32,13.3-2.79,6.68-6.27,13.09-9.65,19.52-3.57,6.8-5.47,13.88-4.77,21.62.24,2.61-.07,5.27.04,7.9.41,9.45-.49,19.23,1.69,28.26,2.86,11.86,8.13,23.14,12.47,34.63.57,1.51,1.55,3,2.71,4.13,10.35,10.04,20.06,20.92,31.39,29.72,13.49,10.49,30.05,15.52,46.77,17.43,19.53,2.24,38.48-2.43,57.14-8.63,11.2-3.72,18.22-12.44,26.96-19.09,4.85-3.69,9.32-8.06,13.3-12.69,7.18-8.34,13.3-17.29,16.5-28.18,1.95-6.62,6.87-12.49,8.2-19.14,1.7-8.54,2.22-17.66,1.25-26.3-1.09-9.65-3.96-19.2-6.89-28.53-3.81-12.13-8.36-24.03-12.75-35.98-1.91-5.21-4.86-9.55-11.13-10.05-.94-.31-1.89-.62-2.83-.92-1.58-1.6-2.91-3.61-4.78-4.71-7.15-4.2-14.57-7.95-21.73-12.13-16.42-9.58-34.33-11.97-52.89-11.06-6.13.3-12.24,1.04-18.33,1.83-7.9,1.03-16.65-.05-21.81,8.34-.44.71-1.72.92-2.62,1.33-9.69,4.3-19.44,8.44-29.01,13-1.99.95-3.26,3.41-4.86,5.17-.33.02-.65.03-.98.04Z"/>
  <path class="cls-23" d="m171.17,105.76c7.69.04,12.18,3.47,13.25,9.13,1.32,6.94-.57,10.97-7.02,13.62-5.22,2.15-10.73,3.59-15.97,5.69-9.69,3.89-19.16,8.35-28.97,11.92-3.35,1.22-7.63,1.34-11.11.47-7.6-1.88-10.32-10.94-4.44-16.01,5.93-5.11,12.85-9.4,19.96-12.73,9.58-4.5,19.72-7.8,29.68-11.46,1.82-.67,3.93-.56,4.62-.64Zm-2.34,21.98c2.39-.87,4.78-1.75,7.17-2.62,4.77-2.91,4.35-7.05,2.73-11.48-.23-.61-.32-1.32-.71-1.81-3.95-4.91-14.23-4.11-20.38,1.56-.24.21-.5.41-.76.59-1.89.41-3.9.53-5.64,1.27-8.13,3.46-16.19,7.09-24.27,10.67-2.34,1.46-5.12,2.51-6.92,4.46-4.7,5.09-2.69,11.62,3.84,13.55,4.91,1.45,15.78-2.87,18.73-7.45,2.36-.97,4.72-1.94,7.08-2.91,2.33-.69,4.66-1.39,6.99-2.08,3.74-1.18,7.48-2.37,11.22-3.55.31-.07.62-.14.93-.19Z"/>
  <path class="cls-23" d="m378.43,146.49c-1.85-.02-3.71-.04-5.56-.06-1.05-.29-2.09-.58-3.14-.87-1.55-.02-3.11-.04-4.67-.06-.96-.88-1.77-2.14-2.9-2.58-11.76-4.51-23.56-8.91-35.37-13.3-3.09-1.15-6.5-1.71-9.31-3.33-6.52-3.76-4.57-9.88-3.66-15.6,0,0-.02,0-.02,0,1.05-1.04,2.17-2.03,3.15-3.13,4-4.5,12.47-4.44,16.73.14-.32.34-.64.69-.96,1.03-.97-.12-1.94-.24-2.91-.36-4.43-2.84-7.43-2.41-9.96,1.42-.79,1.9-1.58,3.8-2.37,5.69-2.41,4.39-1.07,7.06,4.45,8.86,1.56.51,3.12,1.01,4.67,1.52,4.07,1.55,8.14,3.09,12.21,4.64,4.57,1.5,9.15,3,13.72,4.5.84.34,1.68.69,2.52,1.03.85.27,1.7.55,2.55.82,2.03.93,4.06,1.87,6.09,2.8.38-.05.75-.1,1.13-.15l-.13.21c1.71,2.24,3.58,3.53,6.09,1.01.64.03,1.27.06,1.91.09,3.62,3.06,5.49.96,6.94-2.36.06-.27.16-.53.28-.78,2.39-1.69,2.31-3.4.04-5.12-3.1-2.59-6.21-5.18-9.31-7.76-1.26-.49-2.53-.98-3.79-1.47-6.85-3.11-13.7-6.21-20.54-9.32-.24.02-.45-.06-.62-.24l.06-2.01c.79-.07,1.72-.43,2.36-.15,9.75,4.14,19.78,7.76,29.07,12.77,6.76,3.65,10.77,11.96,2.77,19.54-.69.65-1.01,1.7-1.51,2.56Z"/>
  <path class="cls-3" d="m378.43,146.49c.49-.86.82-1.91,1.51-2.56,8.01-7.58,3.99-15.89-2.77-19.54-9.28-5.01-19.32-8.63-29.07-12.77-.65-.28-1.57.09-2.36.15-4.02-1.36-8.04-2.71-12.05-4.07-4.26-4.59-12.73-4.64-16.73-.14-.98,1.11-2.1,2.09-3.15,3.13,1.36-7.28,6.79-10.59,14.35-8.57,9.6,2.56,19.18,5.17,28.71,7.96,2.18.64,4.13,2.1,6.16,3.22,5.61,3.1,11.12,6.39,16.83,9.3,6.14,3.13,10.4,9.3,8.01,16.52-1.84,5.56-3.39,7.3-9.43,7.37Z"/>
  <path class="cls-3" d="m313.82,110.69c-.91,5.72-2.85,11.84,3.66,15.6,2.81,1.62,6.21,2.18,9.31,3.33,11.81,4.39,23.61,8.79,35.37,13.3,1.13.43,1.94,1.7,2.9,2.58-3.14-1.02-6.28-2.07-9.44-3.06-11.78-3.68-23.75-6.86-35.26-11.25-4.28-1.63-8.33-5.48-10.98-9.34-3.28-4.78,1.67-7.9,4.44-11.17Z"/>
  <path class="cls-23" d="m236.77,118.85c-.75.01-1.51.03-2.26.04.08-.39.15-.78.22-1.17-.02-.65-.05-1.3-.07-1.95.62-.18,1.24-.35,1.86-.53,10.13.02,20.25.05,30.38.07.6.15,1.19.3,1.79.46,2.72.2,5.44.41,8.16.61.63.07,1.27.15,1.9.22,4.21,3.04,9.59,2.76,13.23-.68,1.06-1.39,2.13-2.77,3.19-4.16.89-2.08,1.78-4.15,2.67-6.23.92.12,1.84.25,2.76.37-.02.5-.03,1-.05,1.51-.62.97-1.4,1.87-1.85,2.91-4.22,9.64-7.2,10.83-17.69,10.12-14.72-1-29.5-1.11-44.25-1.6Z"/>
  <path class="cls-3" d="m236.77,118.85c14.75.49,29.53.59,44.25,1.6,10.49.72,13.47-.47,17.69-10.12.46-1.04,1.23-1.94,1.85-2.91,1.96,7.75-3.3,15.31-11.18,15.12-16.41-.4-32.81-1.24-49.21-2.02-1.16-.06-2.27-1.09-3.41-1.67Z"/>
  <path class="cls-18" d="m268.77,94.83c1.32.28,2.65.56,3.97.83.04.57.08,1.14.11,1.71-1.38.49-2.75.97-4.13,1.45-4.02.22-8.03.44-12.05.66-2.97.05-5.94.11-8.91.16-1.67-.68-3.35-1.35-5.02-2.03-.19-.92-.38-1.84-.57-2.76,7.52.06,15.04.12,22.57.18,1.34-.07,2.69-.14,4.03-.21Z"/>
  <path class="cls-23" d="m210.81,96.75c.76.27,1.52.54,2.28.81-1.17.94-2.34,1.89-3.51,2.84-.94.76-1.88,1.51-2.83,2.26-.81,1.85-2.36,3.72-2.3,5.54.2,5.5,4.06,8.55,8.56,10.91-3.4-1.23-6.8-2.46-10.2-3.69.02-.27,0-.53-.03-.8.01-4.32.03-8.65.04-12.97,1-.94,1.99-1.87,2.99-2.81,1.66-.71,3.33-1.41,4.99-2.11Z"/>
  <path class="cls-3" d="m300.61,105.91c-.92-.12-1.84-.25-2.76-.37-1.06-1.96-2.11-3.93-3.17-5.89-.65-.3-1.3-.59-1.95-.89-.66-.12-1.32-.24-1.97-.36-2.53-2.97-5.6-3.27-9.02-1.8l-2.94-.2c-.03-.57-.06-1.14-.09-1.71,5.83-2.19,11.39-.65,16.74,1.55,4.14,1.7,5.76,5.21,5.16,9.67Z"/>
  <path class="cls-3" d="m202.82,115.44c3.4,1.23,6.8,2.46,10.2,3.69,3.06.09,6.11.17,9.17.26.51.38,1.03.77,1.54,1.15-3.32,4.55-8.12,3.53-12.29,2.48-3.8-.95-8.39-2.1-8.63-7.58Z"/>
  <path class="cls-3" d="m242.16,94.86c.19.92.38,1.84.57,2.76-1.43.44-2.86.89-4.29,1.34-1.06.09-2.12.19-3.18.28-.52-.29-1.03-.58-1.55-.87.03-.42.05-.83.08-1.25-1.69-.82-3.38-1.64-5.07-2.46,4.54-4.18,8.97-.92,13.43.21Z"/>
  <path class="cls-6" d="m209.59,100.4c1.17-.95,2.34-1.9,3.51-2.84.58-.08,1.16-.16,1.74-.25,2.3-.19,4.6-.37,6.9-.55.65-.06,1.31-.13,1.96-.19,1.69.31,3.37.62,5.06.93-2.01.99-4.01,1.97-6.02,2.96-2.99.06-5.99.12-8.98.18-1.39-.08-2.78-.16-4.16-.24Z"/>
  <path class="cls-3" d="m202.83,101.67c-.01,4.32-.03,8.65-.04,12.97-1.58-2.61-3.79-5.04-4.57-7.87-.86-3.1,1.64-4.66,4.61-5.09Z"/>
  <path class="cls-23" d="m228.76,97.5c-1.69-.31-3.37-.62-5.06-.93,1.68-.64,3.36-1.28,5.04-1.92,1.69.82,3.38,1.64,5.07,2.46-1.68.13-3.36.26-5.05.39Z"/>
  <path class="cls-11" d="m278.71,94.69c.03.57.06,1.14.09,1.71-.7.44-1.4.89-2.09,1.33-1.29-.12-2.57-.24-3.86-.36-.04-.57-.08-1.14-.11-1.71,1.99-.32,3.99-.65,5.98-.97Z"/>
  <path class="cls-23" d="m221.74,96.76c-2.3.18-4.6.37-6.9.55,2.3-.18,4.6-.37,6.9-.55Z"/>
  <path class="cls-3" d="m234.74,117.72c-.07.39-.15.78-.22,1.17-2.21.26-4.42.51-6.63.76-.04-.52-.07-1.03-.11-1.55l6.96-.38Z"/>
  <path class="cls-3" d="m268.77,94.83c-1.34.07-2.69.14-4.03.21,1.2-2.85,2.55-2.77,4.03-.21Z"/>
  <path class="cls-3" d="m210.81,96.75c-1.66.7-3.33,1.41-4.99,2.11.71-2.95,2.36-3.69,4.99-2.11Z"/>
  <path class="cls-23" d="m223.74,120.54c-.51-.38-1.03-.77-1.54-1.14,1.2-.49,2.41-.99,3.61-1.49l-.19,2.44c-.63.06-1.25.12-1.88.19Z"/>
  <path class="cls-11" d="m225.62,120.35c.06-.81.12-1.63.19-2.45.66.07,1.32.13,1.98.2.03.52.07,1.03.11,1.55-.76.23-1.51.47-2.27.7Z"/>
  <path class="cls-3" d="m369.73,145.56c1.05.29,2.09.58,3.14.87-1.05-.29-2.09-.58-3.14-.87Z"/>
  <path class="cls-21" d="m329.56,169.73c6.28.5,9.23,4.84,11.14,10.04,4.39,11.94,8.94,23.85,12.75,35.98,2.93,9.33,5.8,18.87,6.89,28.53.97,8.64.45,17.76-1.25,26.3-1.33,6.66-6.25,12.52-8.2,19.14-3.2,10.89-9.32,19.84-16.5,28.18-3.98,4.63-8.45,9-13.3,12.69-8.74,6.65-15.76,15.37-26.96,19.09-18.66,6.2-37.61,10.87-57.14,8.63-16.72-1.91-33.28-6.94-46.77-17.43-11.32-8.8-21.03-19.69-31.39-29.72-1.16-1.12-2.14-2.62-2.71-4.13-4.34-11.49-9.61-22.77-12.47-34.63-2.18-9.03-1.28-18.81-1.69-28.26-.11-2.63.2-5.29-.04-7.9-.71-7.74,1.2-14.82,4.77-21.62,3.37-6.43,6.85-12.83,9.65-19.52,1.74-4.17,2.52-8.8,3.32-13.3.54-3.01.44-6.1,4.14-7.16-.34,2.32-.68,4.64-1.02,6.96.91,2.42,1.23,5.37,2.85,7.14,4.41,4.82,5,7.52,1.88,13.09-3.8,6.81-7.83,13.53-11.02,20.62-1.71,3.8-2.52,8.28-2.6,12.48-.14,8.3.17,16.64.95,24.9.57,6.03,1.56,12.18,3.5,17.89,2.5,7.35,5.97,14.4,9.35,21.42,1.39,2.89,3.41,5.55,5.5,8.02,3.84,4.54,7.91,8.9,11.95,13.27,2,2.17,3.88,4.62,6.29,6.21,11.71,7.66,23.97,14.38,37.64,17.78,5.7,1.42,11.77,1.88,17.67,1.89,6.12,0,12.23-1.13,18.36-1.63,18.14-1.49,34.41-7.33,47.48-20.47,5.6-5.63,10.57-11.94,16.54-17.14,4.53-3.94,7.24-8.47,8.97-14,1.19-3.8,2.62-7.55,4.29-11.15,2.52-5.44,4.44-10.74,4.52-17.06.26-20.52-1.99-40.43-9.64-59.7-2.42-6.09-4.78-13.07.88-19.25.47-.52.35-1.59.5-2.4-.22-6.45-5.81-9.36-9.08-13.81Z"/>
  <path class="cls-21" d="m170.71,170.57c1.6-1.76,2.87-4.23,4.86-5.17,9.56-4.56,19.32-8.7,29.01-13,.91-.4,2.19-.61,2.62-1.33,5.16-8.39,13.92-7.31,21.81-8.34,6.09-.79,12.2-1.53,18.33-1.83,18.56-.91,36.47,1.48,52.89,11.06,7.16,4.18,14.58,7.94,21.73,12.13,1.87,1.1,3.2,3.12,4.78,4.71-1.83-.48-3.7-.85-5.49-1.47-8.18-2.85-16.33-5.76-24.49-8.66-2.81-3.43-6.29-1.67-9.65-1.34-2.54.25-5.7,1.07-7.59-.05-7.57-4.47-15.65-5.11-24.05-4.64-5.11.28-10.3.12-15.31.98-9.55,1.63-18.98,3.91-28.5,5.74-1.54.3-3.35-.77-4.9-.48-3.72.69-7.36,1.81-11.04,2.76-8.34,2.98-16.68,5.95-25.01,8.93Z"/>
  <path class="cls-23" d="m296.76,158.67c8.16,2.89,16.32,5.81,24.49,8.66,1.78.62,3.65.98,5.49,1.47.94.31,1.89.62,2.83.93,3.27,4.44,8.86,7.36,9.08,13.81-6.12,7.69-13.57,5.02-20.88,2.55-6.6-2.24-13.21-4.52-19.61-7.27-3.43-1.47-6.61-3.73-9.56-6.05-3.67-2.89-3.4-6.53-.98-10.21,2.19-3.33,5.44-4.13,9.14-3.87Zm-3.92,4.92l-.17.12c-1.17,1.51-3.56,4.06-3.3,4.37,1.75,2.09,4.06,3.69,6.2,5.45,8.83,3.41,17.57,7.05,26.51,10.12,3.56,1.22,8.58,3.01,10.53-1.87,2.05-5.12-2.9-7.5-6.5-9.1-8.33-3.71-16.96-6.75-25.47-10.06-3-2.85-5.46-1.41-7.81.97Z"/>
  <path class="cls-23" d="m170.71,170.57c8.34-2.98,16.68-5.95,25.02-8.93,2.75-.29,5.51-.93,8.24-.79,3.67.19,7.27,1.03,7.82,5.73-1.73,4.01-3.46,8.02-5.18,12.03-9.37,2.61-18.82,4.96-28.08,7.9-7.38,2.34-12.1,1.18-15.72-4.89.34-2.32.68-4.64,1.02-6.96.98-.98,1.95-1.96,2.93-2.94.99-.37,1.99-.74,2.98-1.11.33,0,.65-.02.98-.04Zm1.12,3.12l-.05.05c-3.99,1.15-5.87,3.87-4.53,7.77,1.31,3.83,4.81,3.31,7.93,2.66,1.23-.26,2.36-1.05,3.53-1.6.66-.06,1.33-.11,1.99-.17,2.05-.86,4.09-1.71,6.14-2.57,1.96-.48,3.92-.96,5.88-1.44,2.36-.86,4.73-1.71,7.09-2.57.96-.17,1.93-.33,2.89-.5.66-.53,1.32-1.07,1.99-1.6.39-.38.78-.75,1.18-1.13.87-1.51,2.76-3.37,2.39-4.44-.6-1.71-2.64-3.98-4.18-4.07-3.06-.18-6.2.97-9.31,1.56-.65.07-1.3.14-1.95.21l-2.27,1.53c-.29.03-.58.09-.87.16-1.69.61-3.38,1.22-5.06,1.83l-6.77,1.57c-2,.91-4,1.82-6.01,2.73Z"/>
  <path class="cls-21" d="m169.73,170.61c-.99.37-1.99.74-2.98,1.11.99-.37,1.99-.74,2.98-1.11Z"/>
  <path class="cls-14" d="m126.96,125.92c8.08-3.57,16.14-7.21,24.27-10.67,1.74-.74,3.75-.86,5.64-1.27-1.1,1.08-2.2,2.16-3.3,3.23-.84.27-1.68.53-2.53.8-1.53.67-3.05,1.33-4.58,2-8.22,3.62-16.94,6.37-23.22,13.37-3.04,3.74-1.03,5.27,2.65,6.07,1.59.03,3.17.07,4.76.1.74.11,1.49.23,2.23.34-3.93,2.75-9.16,2.66-11.56-.19-2.61-3.11-1.64-6.84,2.66-10.62,1.08-.95,1.98-2.1,2.96-3.17Z"/>
  <path class="cls-6" d="m126.96,125.92c-.98,1.06-1.88,2.22-2.96,3.17-4.31,3.78-5.28,7.52-2.66,10.62,2.4,2.85,7.63,2.94,11.56.19,3.24-1.14,6.47-2.28,9.71-3.42-2.95,4.57-13.82,8.89-18.73,7.45-6.53-1.93-8.54-8.45-3.84-13.55,1.8-1.95,4.58-3,6.92-4.46Z"/>
  <path class="cls-8" d="m153.58,117.22c1.1-1.08,2.2-2.16,3.3-3.23.27-.18.52-.38.76-.59,2.87-.68,5.77-1.28,8.61-2.07,3.94-1.09,7.55-.95,10.55,2.25,2.43,5.79-.87,9.05-5.23,11.84-.29.05-.58.11-.87.19-1.08-.11-2.16-.21-3.25-.32.29-.67.58-1.34.87-2.01.79-.25,1.57-.5,2.36-.75,1.54-1.62,3.09-3.24,4.63-4.86-1.53-1.33-3.07-2.67-4.6-4l-3.92.11c-1.16.48-2.32.96-3.48,1.43-.54.11-1.08.23-1.63.34-1.16.5-2.31,1.01-3.47,1.51-.83.19-1.65.39-2.48.58-.72-.14-1.44-.28-2.16-.43Z"/>
  <path class="cls-8" d="m142.61,136.48c-3.24,1.14-6.47,2.28-9.71,3.42-.74-.11-1.49-.23-2.23-.34,1.83-1.48,3.67-2.97,5.5-4.45,3.87-1.47,7.74-2.94,11.61-4.41,4.02-.98,8.04-1.95,12.06-2.93-3.38,1.93-6.76,3.87-10.14,5.8-2.36.97-4.72,1.94-7.08,2.91Z"/>
  <path class="cls-6" d="m176.8,113.57c-3-3.2-6.61-3.33-10.55-2.25-2.85.78-5.74,1.38-8.61,2.07,6.15-5.67,16.43-6.47,20.38-1.56.39.48.48,1.2.71,1.81-.64-.02-1.28-.04-1.92-.07Z"/>
  <path class="cls-14" d="m176.8,113.57c.64.02,1.28.04,1.92.07,1.62,4.43,2.04,8.57-2.73,11.48-1.47.1-2.95.2-4.42.3,4.36-2.79,7.66-6.05,5.23-11.84Z"/>
  <path class="cls-14" d="m149.69,133.57c3.38-1.93,6.76-3.87,10.14-5.8.27-.09.54-.17.82-.24.4.22.8.43,1.2.65-1.72,1.1-3.45,2.21-5.17,3.31-2.33.69-4.66,1.39-6.99,2.08Z"/>
  <path class="cls-6" d="m156.68,131.48c1.72-1.1,3.45-2.21,5.17-3.31.66-.13,1.33-.27,1.99-.4l4.07.16c-3.74,1.18-7.48,2.37-11.22,3.55Z"/>
  <path class="cls-6" d="m171.58,125.41c1.47-.1,2.95-.2,4.42-.3-2.39.88-4.78,1.75-7.17,2.62.63-.71,1.25-1.42,1.88-2.14.29-.08.58-.14.87-.19Z"/>
  <path class="cls-14" d="m170.71,125.6c-.63.71-1.25,1.42-1.88,2.14-.31.05-.62.12-.93.19-1.36-.05-2.71-.11-4.07-.16.66-.67,1.31-1.33,1.97-2,.55-.16,1.11-.32,1.66-.48,1.08.11,2.16.21,3.25.32Z"/>
  <path class="cls-14" d="m364.82,139.51c-.38.05-.75.1-1.13.15-2.03-.93-4.06-1.87-6.09-2.8-.85-.27-1.7-.55-2.55-.82-.84-.34-1.68-.69-2.52-1.03-4.57-1.5-9.15-3-13.72-4.5-4.07-1.55-8.14-3.09-12.21-4.64-1.56-.51-3.12-1.01-4.67-1.52-1.48-2.95-2.97-5.9-4.45-8.86.79-1.9,1.58-3.8,2.37-5.69,3.32-.47,6.64-.95,9.96-1.42.97.12,1.94.24,2.91.36,3.06,1.56,6.13,3.11,9.19,4.67-.48.21-.97.42-1.45.63-2.25-.43-4.49-.86-6.74-1.29-1.98-.68-3.92-1.68-5.96-1.96-3.55-.49-6.73,1.08-6.97,4.66-.14,2.2,1.78,4.81,3.36,6.75.9,1.11,2.97,1.27,4.53,1.82,8.58,3.02,17.16,6.06,25.77,9,1.34.46,2.86.4,4.29.59.31.07.62.14.93.22,1.75,1.21,3.49,2.42,5.24,3.63-.03.68-.07,1.36-.1,2.05Z"/>
  <path class="cls-8" d="m340.47,114.03c.48-.21.97-.42,1.45-.63,1.25.12,2.51.25,3.76.37.17.18.38.25.62.24,6.85,3.11,13.7,6.21,20.54,9.32,1.26.49,2.53.98,3.79,1.47.02.95.05,1.9.07,2.85-1.82-.52-3.64-1.04-5.46-1.56-2.21-1.05-4.42-2.09-6.63-3.14-1.67-.74-3.34-1.48-5.01-2.22-4.38-2.24-8.76-4.47-13.14-6.71Z"/>
  <path class="cls-8" d="m364.82,139.51c.03-.68.07-1.36.1-2.05,9.72.23,10.36-.28,9.52-7.48,4.75,1.83,2.5,5.52,2.32,8.67-1.36.73-2.71,1.45-4.07,2.18-.64-.03-1.27-.06-1.91-.09-2.03-.34-4.06-.68-6.09-1.01,0,0,.13-.21.13-.21Z"/>
  <path class="cls-6" d="m366.85,123.33c-6.85-3.11-13.7-6.21-20.54-9.32,6.85,3.11,13.7,6.21,20.54,9.32Z"/>
  <path class="cls-18" d="m345.68,113.78c-1.25-.12-2.51-.25-3.76-.37-3.06-1.56-6.13-3.11-9.19-4.67.32-.34.64-.69.96-1.03,4.02,1.36,8.04,2.71,12.05,4.07-.02.67-.04,1.34-.06,2.01Z"/>
  <path class="cls-14" d="m376.76,138.65c.19-3.15,2.43-6.84-2.32-8.67-1.31-.63-2.61-1.26-3.92-1.89l.19-.44c-.02-.95-.05-1.9-.07-2.85,3.1,2.59,6.21,5.18,9.31,7.76-.01,1.71-.03,3.41-.04,5.12-.13.25-.22.51-.28.78-.96.06-1.91.13-2.87.19Z"/>
  <path class="cls-6" d="m326.61,125.86c4.07,1.55,8.14,3.09,12.21,4.64-4.07-1.55-8.14-3.09-12.21-4.64Z"/>
  <path class="cls-6" d="m317.48,115.49c1.48,2.95,2.97,5.9,4.45,8.86-5.52-1.79-6.87-4.47-4.45-8.86Z"/>
  <path class="cls-18" d="m329.81,108.37c-3.32.47-6.64.95-9.96,1.42,2.53-3.83,5.53-4.26,9.96-1.42Z"/>
  <path class="cls-18" d="m376.76,138.65c.96-.06,1.91-.12,2.87-.19-1.45,3.33-3.31,5.43-6.94,2.36,1.36-.73,2.71-1.45,4.07-2.18Z"/>
  <path class="cls-6" d="m364.69,139.72c2.03.34,4.06.68,6.09,1.01-2.51,2.52-4.38,1.23-6.09-1.01Z"/>
  <path class="cls-6" d="m357.61,136.85c2.03.93,4.06,1.87,6.09,2.8-2.03-.93-4.06-1.87-6.09-2.8Z"/>
  <path class="cls-18" d="m379.91,137.69c.01-1.71.03-3.41.04-5.12,2.27,1.72,2.35,3.43-.04,5.12Z"/>
  <path class="cls-6" d="m352.54,135c.84.34,1.68.69,2.52,1.03-.84-.35-1.68-.69-2.52-1.03Z"/>
  <path class="cls-6" d="m227.78,118.1c-.66-.07-1.32-.13-1.98-.2-1.2.5-2.4,1-3.61,1.49-3.06-.09-6.11-.18-9.17-.27-4.49-2.37-8.36-5.42-8.56-10.92-.07-1.82,1.48-3.69,2.3-5.54-.3,3.2-2.06,6.71,1.84,9.06.31.24.62.48.93.72,1.31,4.28,4.49,4.06,8.11,3.78,5.65-.43,11.35-.33,17.03-.46.02.65.05,1.3.07,1.95-2.32.13-4.64.26-6.96.38Z"/>
  <path class="cls-14" d="m266.91,115.32c-10.13-.02-20.25-.05-30.38-.07.07-.7.13-1.41.2-2.11,9.97-.33,19.95-.66,29.92-.99.09,1.06.17,2.11.26,3.17Z"/>
  <path class="cls-8" d="m236.73,113.14c-.07.7-.13,1.41-.2,2.11-.62.18-1.24.35-1.86.53-5.68.12-11.37.02-17.03.46-3.62.28-6.8.5-8.11-3.78,1.13.02,2.26.03,3.39.05,1.22.25,2.44.51,3.66.76,1.04.14,2.09.28,3.13.42,3.13-.56,6.27-1.12,9.4-1.69l7.62,1.15Z"/>
  <path class="cls-18" d="m290.77,98.4c.66.12,1.32.24,1.97.36.65.3,1.3.59,1.95.89,1.06,1.96,2.11,3.93,3.17,5.89-.89,2.08-1.78,4.15-2.66,6.23-.38-.27-.75-.53-1.13-.8.58-7.66-1.31-10.17-7.44-9.88-.65-.09-1.29-.18-1.94-.27.03-.52.06-1.04.09-1.55,2-.29,4-.57,6-.86Z"/>
  <path class="cls-6" d="m292,115.92c-3.65,3.44-9.03,3.72-13.24.68,2-.64,4.01-1.28,6.01-1.92.64,0,1.28.02,1.93.03.65.27,1.29.55,1.94.82l2.77-.22c.2.2.39.41.59.61Z"/>
  <path class="cls-8" d="m266.91,115.32c-.09-1.06-.17-2.11-.26-3.17,1.35-.08,2.69-.16,4.04-.25,1.47.75,2.93,1.5,4.4,2.25-2.13.54-4.26,1.08-6.39,1.62-.6-.15-1.19-.3-1.79-.46Z"/>
  <path class="cls-8" d="m284.77,114.68c-2,.64-4.01,1.28-6.01,1.92-.63-.07-1.27-.15-1.9-.22.26-.67.51-1.35.77-2.02,2.56-.35,5.12-.71,7.68-1.06-.18.46-.36.92-.54,1.37Z"/>
  <path class="cls-6" d="m277.63,114.36c-.26.67-.51,1.35-.77,2.02-2.72-.2-5.44-.41-8.16-.61,2.13-.54,4.26-1.08,6.39-1.62.85.07,1.7.14,2.54.21Z"/>
  <path class="cls-6" d="m295.19,111.76c-1.06,1.38-2.13,2.77-3.19,4.16-.19-.2-.39-.41-.58-.61-.04-.89-.08-1.78-.12-2.67.43-.74.86-1.47,1.28-2.21.49.18.98.36,1.48.53.38.27.75.53,1.13.8Z"/>
  <path class="cls-2" d="m284.77,114.68c.18-.46.36-.92.53-1.37-4.87-.47-9.75-.94-14.62-1.4-1.35.08-2.69.16-4.04.25-9.97.33-19.95.66-29.92.99-2.54-.38-5.08-.76-7.62-1.15-3.13.25-6.25.51-9.38.76l-3.15.51c-1.22-.25-2.44-.51-3.66-.76-.17-.89-.34-1.79-.51-2.68.13-1.71.26-3.42.39-5.14,3.2-.54,6.39-1.09,9.59-1.63,1.5-.57,3.01-1.14,4.51-1.71.95-.15,1.9-.3,2.86-.44,3.16-.07,6.31-.13,9.47-.2,2.84-.35,5.69-.7,8.53-1.05,2.97-.05,5.94-.11,8.91-.16,1.39.67,2.73,1.75,4.18,1.94,3.91.52,7.86.72,11.8.94,4.71.26,9.42.4,14.13.6.85.31,1.69.62,2.54.93-.06,2.82-.13,5.64-.2,8.45-.07.23-.1.46-.11.7-.77.56-1.54,1.12-2.31,1.67-.64,0-1.28-.02-1.93-.03Z"/>
  <path class="cls-29" d="m286.77,102.96c-4.71-.19-9.42-.34-14.13-.6-3.94-.22-7.9-.42-11.8-.94-1.45-.19-2.79-1.27-4.18-1.94,4.02-.22,8.03-.44,12.05-.66,2.72.21,5.45.41,8.17.62.6.14,1.2.28,1.8.41,2,.32,4,.63,6,.95.65.09,1.29.18,1.94.27.05.63.1,1.25.15,1.88Z"/>
  <path class="cls-19" d="m247.76,99.65c-2.84.35-5.69.7-8.53,1.05-.26-.58-.52-1.16-.78-1.75,1.43-.45,2.86-.89,4.29-1.33,1.67.68,3.35,1.35,5.02,2.03Z"/>
  <path class="cls-14" d="m276.89,99.45c-2.72-.21-5.45-.41-8.17-.62,1.38-.48,2.75-.97,4.13-1.45,1.29.12,2.58.24,3.86.36.06.57.12,1.15.18,1.72Z"/>
  <path class="cls-14" d="m208.6,111.72c-3.9-2.35-2.14-5.85-1.84-9.06.94-.75,1.88-1.51,2.83-2.26,1.39.08,2.78.16,4.16.24-3.51,2.86-7.53,5.48-5.15,11.08Z"/>
  <path class="cls-11" d="m290.77,98.4c-2,.29-4,.57-6,.86-.99-.05-1.99-.1-2.98-.15-.02-.84-.03-1.68-.05-2.52,3.42-1.46,6.49-1.17,9.02,1.8Z"/>
  <path class="cls-18" d="m281.74,96.59c.02.84.03,1.68.05,2.52-1.04.25-2.07.5-3.11.75-.6-.14-1.2-.28-1.8-.41-.06-.57-.12-1.15-.18-1.72.7-.44,1.4-.88,2.09-1.33.98.06,1.96.13,2.94.2Z"/>
  <path class="cls-11" d="m294.69,99.65c-.65-.3-1.3-.59-1.95-.89.65.3,1.3.59,1.95.89Z"/>
  <path class="cls-14" d="m229.76,100.9c-.95.15-1.9.3-2.86.44-1.39-.13-2.79-.25-4.18-.38-.02-.17-.01-.34.02-.51,2.01-.99,4.01-1.97,6.02-2.96,1.68-.13,3.36-.26,5.05-.39-.03.42-.05.83-.08,1.25.51.29,1.01.58,1.52.88-1.83.55-3.66,1.11-5.48,1.66Z"/>
  <path class="cls-29" d="m229.76,100.9c1.83-.55,3.66-1.11,5.47-1.65-.01,0,.04-.01.04-.01,1.06-.09,2.12-.19,3.18-.28.26.58.52,1.16.78,1.75-3.16.07-6.31.13-9.47.2Z"/>
  <path class="cls-19" d="m235.27,99.23s-.05.02-.04.01c-.5-.3-1-.59-1.51-.89.52.29,1.03.58,1.55.87Z"/>
  <path class="cls-29" d="m208.6,111.72c-2.39-5.6,1.64-8.22,5.15-11.08,2.99-.06,5.99-.12,8.98-.18-.03.17-.04.34-.02.51-.11.7-.22,1.39-.33,2.09-3.2.54-6.39,1.09-9.59,1.63-2.19,1.56-2.65,3.24-.39,5.14.17.89.34,1.79.51,2.68-1.13-.02-2.26-.03-3.39-.05-.31-.24-.62-.48-.93-.72Z"/>
  <path class="cls-27" d="m162.8,181.62c3.62,6.07,8.34,7.23,15.72,4.89,9.26-2.94,18.71-5.29,28.08-7.9,7.18-2.08,9.46-7.36,5.18-12.03-.55-4.71-4.15-5.55-7.82-5.73-2.73-.14-5.49.5-8.24.79,3.67-.95,7.31-2.07,11.04-2.76,1.55-.29,3.35.78,4.9.48,9.52-1.83,18.95-4.11,28.5-5.74,5.01-.86,10.2-.7,15.31-.98,8.4-.46,16.48.17,24.05,4.64,1.89,1.12,5.04.3,7.59.05,3.36-.33,6.84-2.09,9.65,1.34-3.7-.26-6.95.54-9.14,3.87-2.41,3.68-2.69,7.32.98,10.21,2.96,2.33,6.13,4.58,9.56,6.05,6.4,2.75,13.01,5.03,19.61,7.27,7.31,2.48,14.76,5.14,20.88-2.55-.15.81-.02,1.88-.5,2.4-5.66,6.18-3.3,13.16-.88,19.25,7.66,19.27,9.9,39.17,9.64,59.7-.08,6.32-2,11.62-4.52,17.06-1.67,3.61-3.1,7.36-4.29,11.15-1.73,5.53-4.44,10.06-8.97,14-5.96,5.19-10.94,11.51-16.54,17.14-13.07,13.14-29.34,18.98-47.48,20.47-6.13.5-12.24,1.64-18.36,1.63-5.9,0-11.96-.47-17.67-1.89-13.66-3.4-25.93-10.12-37.64-17.78-2.42-1.58-4.29-4.04-6.29-6.21-4.04-4.37-8.11-8.73-11.95-13.27-2.09-2.47-4.11-5.13-5.5-8.02-3.37-7.02-6.85-14.07-9.35-21.42-1.94-5.71-2.93-11.86-3.5-17.89-.78-8.26-1.09-16.6-.95-24.9.07-4.19.89-8.68,2.6-12.48,3.19-7.09,7.22-13.81,11.02-20.62,3.11-5.57,2.53-8.27-1.88-13.09-1.62-1.77-1.94-4.73-2.85-7.14Zm91.35-10.79c-.1-.55-.19-1.1-.29-1.65-9.48,2.08-18.93,4.35-28.46,6.18-8.43,1.62-15.71,4.93-21.51,11.5-2.72,3.09-5.81,6.12-9.31,8.2-7.18,4.28-11.37,10.43-13.8,18.2-1.88,6-4.11,11.9-6.16,17.85-.99,2.88-2.86,5.82-2.72,8.66.52,10.27,1.66,20.5,2.69,30.74,1.54,15.34,10.45,26.3,22.02,35.25,8.63,6.67,17.81,12.64,26.95,18.61,2.54,1.66,5.8,3.07,8.74,3.07,9.93.03,19.89-.34,29.79-1.14,4.22-.34,8.32-2.13,12.48-3.24,4.27-1.15,8.57-2.2,12.82-3.45,3.42-1.01,7.83-1.27,9.97-3.56,6.65-7.14,13.03-14.7,18.35-22.86,4.38-6.71,6.4-14.95,10.75-21.69,5.13-7.95,5.18-15.89,2.94-24.35-1.35-5.11-3.42-10.04-4.53-15.19-1.15-5.31-.48-11.22-2.49-16.09-2.99-7.23-6.26-15.38-11.91-20.22-7.58-6.48-16.07-12.28-24.86-17.5-9.95-5.91-20.13-8.42-31.47-7.32Z"/>
  <path class="cls-6" d="m300.64,162.62c8.51,3.31,17.14,6.35,25.47,10.06,3.59,1.6,8.54,3.98,6.5,9.1-1.95,4.88-6.96,3.1-10.53,1.87-8.94-3.07-17.69-6.71-26.51-10.11-2.26-2.89-4.78-5.71-2.9-9.83,0,0,.17-.12.16-.12,2.6-.32,5.2-.65,7.81-.97Zm-1.19,2.59c-1.29.63-2.56,1.25-3.83,1.86.98,1.58,1.62,4.04,3.01,4.58,8.34,3.28,16.82,6.22,25.34,9.01,1.16.38,2.81-.73,4.24-1.15-.87-1.29-1.45-3.17-2.67-3.78-5.34-2.69-10.81-5.15-16.34-7.44-3.05-1.26-6.31-2.02-9.75-3.09Z"/>
  <path class="cls-18" d="m292.67,163.72c-1.88,4.12.64,6.94,2.9,9.83-2.13-1.76-4.45-3.37-6.2-5.46-.26-.32,2.13-2.86,3.3-4.37Z"/>
  <path class="cls-18" d="m300.64,162.62c-2.6.32-5.21.65-7.81.97,2.35-2.38,4.81-3.82,7.81-.97Z"/>
  <path class="cls-6" d="m192.8,165.87c.65-.07,1.3-.14,1.94-.21,1.63,0,3.26.07,4.88,0,5.7-.2,7.01,1.25,6.22,6.94-.39.38-.78.75-1.18,1.13-.66.53-1.32,1.07-1.99,1.6-.96.17-1.93.33-2.89.49-2.36.86-4.73,1.71-7.09,2.57-1.96.48-3.92.96-5.88,1.44-2.05.86-4.09,1.71-6.14,2.57-.66.06-1.33.11-1.99.17-1.63-.01-3.26.02-4.89-.05-4.24-.18-5.47-2.45-3.38-6.15.48-.86.9-1.75,1.35-2.63,0,0,.05-.05.05-.05,2-.91,4-1.82,6.01-2.73,2.26-.52,4.52-1.04,6.77-1.57.38.37.75.74,1.13,1.12-4.29,2.28-8.59,4.55-13.98,7.41,6.41,2.28,26.45-2.56,29.28-6.09.55-.69,1.09-2.34.83-2.55-.93-.74-2.25-1.56-3.33-1.44-3.28.35-6.52,1.13-9.77,1.74.31-.67.61-1.34.92-2.02.29-.08.58-.13.87-.16.76-.51,1.51-1.02,2.27-1.53Z"/>
  <path class="cls-18" d="m171.78,173.74c-.45.88-.87,1.77-1.35,2.63-2.08,3.7-.85,5.97,3.38,6.15,1.63.07,3.26.04,4.89.05-1.17.55-2.3,1.35-3.53,1.6-3.11.65-6.62,1.17-7.93-2.66-1.33-3.9.54-6.62,4.53-7.77Z"/>
  <path class="cls-18" d="m205.86,172.61c.79-5.69-.52-7.13-6.22-6.94-1.63.06-3.26,0-4.88,0,3.11-.6,6.25-1.74,9.31-1.56,1.54.09,3.58,2.36,4.18,4.07.38,1.07-1.51,2.93-2.39,4.44Z"/>
  <path class="cls-7" d="m211.78,166.58c4.28,4.67,2,9.95-5.18,12.03,1.73-4.01,3.45-8.02,5.18-12.03Z"/>
  <path class="cls-18" d="m192.71,178.4c2.36-.86,4.73-1.71,7.09-2.57-2.36.86-4.73,1.71-7.09,2.57Z"/>
  <path class="cls-18" d="m189.67,167.57c-.31.67-.61,1.34-.92,2.02-1.01.31-2.01.62-3.02.93-.38-.37-.75-.74-1.13-1.12,1.69-.61,3.38-1.22,5.06-1.83Z"/>
  <path class="cls-18" d="m177.83,170.96c-2,.91-4,1.82-6.01,2.73,2-.91,4-1.82,6.01-2.73Z"/>
  <path class="cls-18" d="m180.69,182.41c2.05-.86,4.09-1.72,6.14-2.57-2.05.86-4.09,1.72-6.14,2.57Z"/>
  <path class="cls-18" d="m192.8,165.87c-.76.51-1.51,1.02-2.27,1.53.75-.51,1.51-1.02,2.27-1.53Z"/>
  <path class="cls-18" d="m202.69,175.34c.66-.53,1.33-1.07,1.99-1.6-.66.53-1.33,1.07-1.99,1.6Z"/>
  <path class="cls-19" d="m136.16,135.11c-1.83,1.48-3.66,2.97-5.5,4.45-1.59-.03-3.17-.07-4.76-.1-.89-2.02-1.77-4.05-2.65-6.07,6.28-7,15-9.75,23.22-13.37.44.25.88.5,1.31.75-1.45,1-2.83,2.13-4.37,2.96-4.33,2.33-8.84,4.37-13.04,6.9-1.43.86-2.17,2.85-3.23,4.33,1.73.3,3.45.77,5.18.83,1.27.05,2.55-.43,3.83-.68Z"/>
  <path class="cls-8" d="m123.25,133.38c.88,2.02,1.77,4.05,2.65,6.07-3.68-.8-5.69-2.33-2.65-6.07Z"/>
  <path class="cls-19" d="m153.58,117.22c.72.14,1.44.28,2.16.43-1.81.84-3.62,1.68-5.42,2.52.24-.72.49-1.44.73-2.15l2.53-.8Z"/>
  <path class="cls-8" d="m151.05,118.01c-.24.72-.49,1.44-.73,2.16-.84.2-1.69.39-2.53.59-.44-.25-.88-.5-1.31-.75,1.53-.67,3.05-1.33,4.58-2Z"/>
  <path class="cls-2" d="m147.79,120.76c.85-.2,1.69-.39,2.53-.59,1.81-.84,3.61-1.68,5.42-2.53.83-.19,1.65-.39,2.48-.58,1.16-.5,2.31-1.01,3.46-1.51.54-.11,1.08-.23,1.63-.34,1.16-.48,2.32-.96,3.48-1.44,1.31-.04,2.62-.07,3.92-.11,2.56,2.96,1.71,5.92-.03,8.87-.79.25-1.57.5-2.36.74-1.89.73-3.78,1.46-5.67,2.2-.63.14-1.25.29-1.88.43-5.24-.86-9.45,1.1-13.02,4.79-3.87,1.47-7.74,2.94-11.61,4.41-1.28.25-2.56.73-3.83.68-1.74-.07-3.46-.54-5.18-.83,1.06-1.48,1.8-3.47,3.23-4.33,4.21-2.53,8.71-4.57,13.04-6.9,1.54-.83,2.92-1.97,4.37-2.96Z"/>
  <path class="cls-19" d="m170.69,122.53c1.74-2.95,2.59-5.9.03-8.87,1.53,1.33,3.07,2.67,4.6,4-1.54,1.62-3.09,3.24-4.63,4.86Z"/>
  <path class="cls-19" d="m162.66,125.48c1.89-.73,3.78-1.47,5.67-2.2-.29.67-.58,1.34-.87,2.01-.55.16-1.11.32-1.66.48-1.05-.1-2.09-.2-3.14-.29Z"/>
  <path class="cls-19" d="m166.79,113.78c-1.16.48-2.32.96-3.48,1.44,1.16-.48,2.32-.96,3.48-1.44Z"/>
  <path class="cls-19" d="m161.68,115.55c-1.15.5-2.31,1.01-3.46,1.51,1.15-.51,2.31-1.01,3.46-1.51Z"/>
  <path class="cls-19" d="m147.76,130.69c3.57-3.69,7.78-5.65,13.02-4.79-.05.54-.09,1.08-.14,1.62-.28.07-.55.15-.82.24-4.02.98-8.04,1.95-12.06,2.93Z"/>
  <path class="cls-8" d="m160.64,127.53c.05-.54.09-1.08.14-1.62.63-.14,1.25-.29,1.88-.43,1.05.1,2.09.2,3.14.29-.66.67-1.31,1.33-1.97,2-.66.14-1.33.27-1.99.4-.4-.22-.8-.43-1.2-.65Z"/>
  <path class="cls-2" d="m365.25,126.1c1.82.52,3.64,1.04,5.46,1.56,0,0-.19.44-.19.44.58,1.81,1.16,3.62,1.98,6.19-3.02,0-5.4.06-7.77-.02-1.69-.05-3.37-.28-5.05-.43-.31-.08-.62-.15-.93-.22-7.1-2.99-14.18-6.02-21.3-8.94-3.67-1.51-7.55-2.58-11.06-4.38-1.23-.63-2.27-2.88-2.21-4.34.04-.9,2.24-2.19,3.63-2.43,1.9-.33,3.94.18,5.92.33,6.62,2.3,13.25,4.59,19.87,6.89,1.67.74,3.34,1.48,5.01,2.22,2.21,1.05,4.42,2.09,6.63,3.14Z"/>
  <path class="cls-29" d="m333.73,113.85c-1.98-.15-4.02-.66-5.92-.33-1.38.24-3.59,1.53-3.63,2.43-.06,1.46.98,3.71,2.21,4.34,3.51,1.8,7.39,2.87,11.06,4.38,7.12,2.93,14.2,5.96,21.3,8.94-1.44-.18-2.95-.13-4.29-.59-8.61-2.94-17.19-5.98-25.77-9-1.56-.55-3.63-.72-4.53-1.82-1.58-1.95-3.5-4.55-3.36-6.75.23-3.59,3.42-5.15,6.97-4.66,2.04.28,3.98,1.29,5.96,1.96,0,.37,0,.74,0,1.11Z"/>
  <path class="cls-19" d="m359.68,133.83c1.68.15,3.37.38,5.05.43,2.37.07,4.75.02,7.77.02-.82-2.57-1.4-4.38-1.98-6.19,1.31.63,2.61,1.26,3.92,1.89.84,7.2.2,7.71-9.52,7.48-1.75-1.21-3.49-2.42-5.24-3.63Z"/>
  <path class="cls-19" d="m333.73,113.85c0-.37,0-.74,0-1.11,2.25.43,4.49.86,6.74,1.29,4.38,2.24,8.76,4.47,13.14,6.71-6.62-2.3-13.25-4.59-19.87-6.89Z"/>
  <path class="cls-19" d="m365.25,126.1c-2.21-1.05-4.42-2.09-6.63-3.14,2.21,1.05,4.42,2.09,6.63,3.14Z"/>
  <path class="cls-19" d="m219.73,112.75c3.13-.26,6.25-.51,9.38-.76-3.13.56-6.27,1.13-9.4,1.69-.02-.31,0-.62.02-.92Z"/>
  <path class="cls-29" d="m219.73,112.75c-.03.31-.04.61-.02.92-1.04-.14-2.09-.28-3.13-.42,1.05-.17,2.1-.34,3.15-.5Z"/>
  <path class="cls-8" d="m286.77,102.96c-.05-.63-.1-1.25-.15-1.88,6.13-.28,8.02,2.22,7.44,9.88-.49-.18-.99-.36-1.48-.53-1.09-2.18-2.18-4.36-3.27-6.55-.85-.31-1.69-.62-2.54-.93Z"/>
  <path class="cls-8" d="m278.68,99.86c1.04-.25,2.07-.5,3.11-.75.99.05,1.99.1,2.98.15-.03.52-.06,1.04-.09,1.55-2-.32-4-.63-6-.95Z"/>
  <path class="cls-14" d="m291.3,112.64c.04.89.08,1.78.12,2.67-.93.07-1.85.14-2.77.22.12-.83.25-1.66.37-2.49,0-.24.04-.47.11-.69.73.1,1.46.2,2.18.3Z"/>
  <path class="cls-8" d="m289.01,113.03c-.12.83-.25,1.66-.37,2.49-.65-.27-1.29-.55-1.94-.82.77-.56,1.54-1.12,2.31-1.67Z"/>
  <path class="cls-19" d="m270.69,111.9c4.87.47,9.75.94,14.62,1.4-2.56.35-5.12.71-7.68,1.06-.85-.07-1.7-.14-2.54-.21-1.47-.75-2.93-1.5-4.4-2.25Z"/>
  <path class="cls-29" d="m291.3,112.64c-.73-.1-1.45-.2-2.18-.3.06-2.82.13-5.64.19-8.46,1.09,2.18,2.18,4.36,3.27,6.55-.43.74-.86,1.47-1.28,2.21Z"/>
  <path class="cls-19" d="m222.39,103.05c.11-.7.22-1.39.33-2.09,1.39.13,2.79.25,4.18.38-1.5.57-3.01,1.14-4.51,1.71Z"/>
  <path class="cls-19" d="m212.41,109.82c-2.26-1.89-1.8-3.58.39-5.14-.13,1.71-.26,3.42-.39,5.14Z"/>
  <path class="cls-7" d="m254.14,170.83c11.34-1.1,21.52,1.41,31.47,7.32,8.79,5.22,17.28,11.02,24.86,17.5,5.65,4.83,8.92,12.99,11.91,20.22,2.01,4.87,1.35,10.78,2.49,16.09,1.11,5.15,3.18,10.09,4.53,15.19,2.24,8.45,2.19,16.4-2.94,24.35-4.35,6.74-6.37,14.98-10.75,21.69-5.32,8.15-11.7,15.71-18.35,22.86-2.14,2.3-6.55,2.56-9.97,3.56-4.24,1.25-8.54,2.3-12.82,3.45-4.16,1.12-8.26,2.9-12.48,3.24-9.9.8-19.86,1.17-29.79,1.14-2.94,0-6.2-1.42-8.74-3.07-9.14-5.97-18.32-11.94-26.95-18.61-11.57-8.95-20.48-19.91-22.02-35.25-1.03-10.24-2.17-20.47-2.69-30.74-.14-2.83,1.73-5.78,2.72-8.66,2.05-5.95,4.28-11.84,6.16-17.85,2.43-7.77,6.63-13.92,13.8-18.2,3.5-2.09,6.58-5.11,9.31-8.2,5.79-6.57,13.08-9.88,21.51-11.5,9.53-1.83,18.98-4.1,28.46-6.18.1.55.19,1.1.29,1.65Zm36.58,24.73c-1.27-1.19-2.38-2.69-3.86-3.49-3.61-1.95-7.34-3.68-11.11-5.3-3.94-1.69-8.29-5-11.91-4.39-14.59,2.48-29.85-1.08-44.02,6.57-9.36,5.06-19.91,7.94-28.87,14.14-3.78,2.62-4.24,5.25-3.38,9.71.93,4.81.25,10.05-.44,15-.63,4.48-2.98,8.79-3.2,13.24-.33,6.44-.17,13.09,1.15,19.37,1.59,7.56,3.02,15.95,7.31,22.01,14.47,20.49,31.83,37.06,60.08,33.23,1.47-.2,3.01-.16,4.49,0,6.51.66,12.25-1.86,18.34-3.64,20.78-6.08,29.76-22.82,38.82-40.14,3.25-6.21,2.85-12.39,3.66-18.67.36-2.79,1.19-5.79.55-8.38-2.29-9.17-5.12-18.2-7.74-27.28,1.12-5.07,2.35-10.47-2.22-14.29-5.02-4.19-10.47-8.09-17.63-7.71Z"/>
  <path class="cls-13" d="m299.45,165.22c3.43,1.07,6.7,1.83,9.75,3.09,5.53,2.29,11,4.74,16.34,7.44,1.22.61,1.79,2.49,2.67,3.78-1.42.42-3.07,1.53-4.24,1.15-8.52-2.79-17-5.72-25.34-9.01-1.39-.55-2.02-3.01-3.01-4.58,1.27-.62,2.54-1.24,3.83-1.86Z"/>
  <path class="cls-13" d="m185.73,170.51c1.01-.31,2.01-.62,3.02-.93,3.25-.61,6.49-1.38,9.77-1.74,1.08-.12,2.4.7,3.33,1.44.26.21-.28,1.86-.83,2.55-2.83,3.53-22.87,8.36-29.28,6.09,5.4-2.86,9.69-5.14,13.98-7.41Z"/>
  <path class="cls-4" d="m310.57,217.55c2.62,9.08,5.46,18.11,7.74,27.28.65,2.59-.19,5.59-.55,8.38-.81,6.28-.41,12.46-3.66,18.67-9.06,17.32-18.04,34.06-38.82,40.14-6.09,1.78-11.83,4.3-18.34,3.64-1.48-.15-3.02-.19-4.49,0-28.25,3.83-45.61-12.74-60.08-33.23-4.28-6.07-5.72-14.45-7.31-22.01-1.32-6.27-1.47-12.93-1.15-19.37.23-4.45,2.58-8.76,3.2-13.24.69-4.95,1.37-10.19.44-15-.86-4.45-.4-7.09,3.38-9.71,8.96-6.2,19.51-9.08,28.87-14.14,14.17-7.65,29.43-4.1,44.02-6.57,3.62-.61,7.98,2.69,11.91,4.39,3.77,1.62,7.51,3.35,11.11,5.3,1.48.8,2.58,2.31,3.86,3.49-6.8.33-13.54.68-19.53-3.69-9.92-7.23-21.17-4-31.6-2.55-8.18,1.14-15.9,5.55-23.82,8.5-7.23-.5-13.77,1.33-19.51,5.81-4.73,3.69-5.18,6.93-1.8,11.89,1.01,1.48,1.73,3.15,2.59,4.74-1.29,7.18-2.74,14.34-3.83,21.55-2.11,14.01.11,27.97,8.06,39.15,12.28,17.25,28.86,28.74,51.75,26.72,1.98-.18,4,.09,5.99-.05,9.91-.7,18.67-4.64,26.59-10.27,11.17-7.95,15.94-20.57,22.35-31.95.61-1.09.72-2.57.74-3.87.19-10.81.51-21.56-3.4-32.04-2.72-7.28-1.81-8.47,5.27-11.94Z"/>
  <path class="cls-22" d="m215.77,197.83c7.92-2.96,15.64-7.36,23.82-8.5,10.43-1.45,21.68-4.69,31.6,2.55,5.99,4.37,12.73,4.01,19.53,3.69,7.16-.38,12.61,3.52,17.63,7.71,4.57,3.81,3.34,9.22,2.22,14.29-7.08,3.47-7.99,4.65-5.27,11.94,3.91,10.48,3.59,21.23,3.4,32.04-.02,1.3-.13,2.78-.74,3.87-6.41,11.38-11.18,24-22.35,31.95-7.93,5.64-16.69,9.57-26.59,10.27-1.99.14-4.01-.12-5.99.05-22.89,2.03-39.47-9.47-51.75-26.72-7.96-11.17-10.17-25.13-8.06-39.15,1.08-7.21,2.54-14.37,3.82-21.54,2.57.1,5.15.19,7.73.29-1.56,2.88-3.34,5.65-4.63,8.65-6.71,15.59-4.62,30.91,3.03,45.3,3.15,5.91,8.48,10.91,13.58,15.48,14.04,12.57,30.33,16.41,48.6,11.04,3.92-1.15,8.19-1.54,11.76-3.36,11.18-5.7,17.76-15.67,23.11-26.58,5.29-10.77,5.96-22.02,3.24-33.51-1.29-5.45-3.17-10.75-4.78-16.12,1.1-1.78,1.88-3.89,3.36-5.26,3.6-3.33,3.26-6.73.67-10.2-5.39-7.21-17.08-8.25-23.99-2.26-3.3-1.69-6.6-3.38-9.91-5.06-.82-4.64-3.66-6.9-8.3-6.95-5.65-.05-11.36-.49-16.94.13-3.42.38-6.65,2.43-9.96,3.73-4.93,2.02-9.86,4.04-14.79,6.06-1.02-1.28-2.04-2.55-3.06-3.83Z"/>
  <path class="cls-1" d="m204.76,220.56c-2.58-.09-5.15-.19-7.73-.28-.85-1.59-1.58-3.26-2.58-4.74-3.38-4.96-2.93-8.2,1.8-11.89,5.75-4.48,12.28-6.31,19.51-5.81,1.02,1.28,2.04,2.55,3.05,3.83.07,1.65.15,3.3.22,4.95-.36,4.45-2.56,7.57-6.49,9.74-1.81,1-3.22,2.7-4.82,4.09-.99.04-1.98.08-2.98.11Z"/>
  <path class="cls-15" d="m207.74,220.44c1.59-1.38,3.01-3.09,4.82-4.09,3.93-2.18,6.13-5.29,6.49-9.74,5.88,1.04,10.38-1,13.51-6.07,1.38,1.79,2.76,3.58,4.14,5.36,3.23,6.01,2.76,7.13-3.96,9.19-1.11.34-2.27.56-3.36.95-7.41,2.65-12.53,7.34-13.93,15.46-.36,2.12-1.34,4.13-1.71,6.25-1.4,8.05-1.62,15.91.82,24.04,2.64,8.8,8.67,13.77,15.57,18.96,10.58,7.96,21.85,7.24,33.25,4.14,12-3.26,17.71-13.93,24.24-23.28.95-1.36,1.24-3.55,1.06-5.28-.93-8.56-1.93-17.11-3.29-25.61-1.02-6.38-4.2-10.84-11.43-11.63-2.67-.29-5.27-2-7.73-3.38-3.75-2.09-3.72-4.23-1.16-7.65,1.65-2.2,2.37-5.09,3.51-7.67.08-.57.17-1.15.25-1.72,3.3,1.69,6.6,3.38,9.91,5.06.93,11.57,4.67,16.31,14.02,17.78.31,1.79.39,3.65.96,5.35,5.15,15.52,8.09,30.8-1.69,45.9-4.66,7.2-9.02,15.33-16.87,18.54-16.58,6.78-33.69,9.88-49.66-2.48-1.05-.81-2.31-1.32-3.41-2.08-6.74-4.68-13.25-9.68-15.33-18.18-1.25-5.11-2.94-10.46-2.55-15.55.59-7.64-.89-15.57,2.95-23,1.35-2.6.47-6.35.6-9.58Z"/>
  <path class="cls-26" d="m207.74,220.44c-.14,3.23.74,6.98-.6,9.58-3.84,7.43-2.36,15.36-2.95,23-.39,5.1,1.3,10.44,2.55,15.55,2.08,8.5,8.58,13.5,15.33,18.18,1.09.76,2.36,1.27,3.41,2.08,15.97,12.36,33.08,9.25,49.66,2.48,7.85-3.21,12.21-11.34,16.87-18.54,9.78-15.1,6.84-30.38,1.69-45.9-.56-1.7-.65-3.56-.96-5.35,1.98-.02,3.96-.04,5.93-.07,1.61,5.37,3.49,10.67,4.78,16.12,2.72,11.49,2.05,22.74-3.24,33.51-5.36,10.91-11.93,20.87-23.11,26.58-3.56,1.82-7.84,2.21-11.76,3.36-18.26,5.36-34.56,1.53-48.6-11.04-5.1-4.57-10.43-9.57-13.58-15.48-7.66-14.39-9.75-29.72-3.03-45.3,1.29-2.99,3.07-5.77,4.63-8.65.99-.04,1.98-.08,2.98-.11Z"/>
  <path class="cls-1" d="m298.67,221.46c-1.98.02-3.96.05-5.93.07-9.35-1.47-13.09-6.21-14.02-17.78,6.91-5.99,18.6-4.95,23.99,2.26,2.59,3.47,2.92,6.87-.67,10.2-1.48,1.37-2.26,3.48-3.36,5.26Z"/>
  <path class="cls-1" d="m268.81,198.68c-.09.57-.17,1.15-.25,1.71-1.19-.14-2.37-.27-3.56-.4-1.96-3.35-4.93-4.57-8.73-4.41-3.62.15-7.25-.06-10.88,0-7.25.14-8.6,1.57-8.58,8.84-.04.49-.08.98-.12,1.47-1.38-1.79-2.76-3.58-4.14-5.36.35-1.65.7-3.29,1.05-4.94,3.31-1.3,6.55-3.36,9.96-3.73,5.58-.62,11.29-.18,16.94-.13,4.63.04,7.48,2.3,8.3,6.95Z"/>
  <path class="cls-26" d="m233.61,195.6c-.35,1.65-.7,3.3-1.05,4.94-3.14,5.07-7.64,7.11-13.52,6.07-.07-1.65-.15-3.3-.22-4.95,4.93-2.02,9.86-4.04,14.79-6.06Z"/>
  <path class="cls-20" d="m265,200c1.19.13,2.37.26,3.56.4-1.14,2.59-1.87,5.48-3.51,7.68-2.56,3.42-2.58,5.56,1.16,7.65,2.46,1.37,5.06,3.08,7.73,3.38,7.23.79,10.41,5.25,11.43,11.63,1.36,8.5,2.36,17.05,3.29,25.61.19,1.72-.1,3.92-1.06,5.28-6.54,9.35-12.24,20.02-24.24,23.28-11.39,3.1-22.67,3.81-33.25-4.14-6.9-5.2-12.93-10.16-15.57-18.96-2.44-8.13-2.22-15.99-.82-24.04.37-2.12,1.35-4.13,1.71-6.25,1.4-8.12,6.52-12.81,13.93-15.46,1.09-.39,2.25-.6,3.36-.95,6.72-2.07,7.2-3.18,3.96-9.19.04-.49.08-.98.12-1.46,5.58,3.96,11.98,3.27,18.28,3.28,5.38.01,8.94-2.15,9.9-7.72Zm-44.25,42.94c0,3.33.13,6.67-.03,10-.31,6.4,2.38,11.21,7.37,14.97,1.32,1,2.68,2.05,3.7,3.34,6.27,7.81,14.94,9.51,23.9,7.93,4.63-.82,8.93-4.29,13.02-7.1,2.31-1.59,3.59-4.65,5.87-6.33,4.6-3.38,7.55-7.2,7.2-13.31-.39-6.77-.04-13.58-.34-20.36-.18-4.14-2.25-7-6.52-8.46-5.15-1.77-9.94-4.72-15.16-6.11-3.95-1.05-8.38-.85-12.52-.46-4.18.4-8.25,2.28-12.42,2.52-9,.52-14.02,5.32-14.07,14.37-.01,3,0,6-.02,9Z"/>
  <path class="cls-9" d="m265,200c-.97,5.57-4.52,7.73-9.9,7.72-6.3-.01-12.7.68-18.28-3.28-.02-7.27,1.33-8.7,8.58-8.84,3.62-.07,7.26.14,10.88,0,3.81-.16,6.77,1.07,8.73,4.41Z"/>
  <path class="cls-24" d="m220.77,242.94c0-3-.01-6,0-9,.04-9.04,5.07-13.85,14.07-14.37,4.17-.24,8.24-2.12,12.42-2.52,4.14-.39,8.57-.59,12.52.46,5.22,1.39,10.01,4.34,15.16,6.11,4.26,1.47,6.33,4.33,6.52,8.46.3,6.78-.05,13.59.34,20.36.35,6.11-2.6,9.93-7.2,13.31-2.28,1.67-3.56,4.74-5.87,6.33-4.09,2.8-8.39,6.28-13.02,7.1-8.96,1.58-17.63-.12-23.9-7.93-1.03-1.28-2.38-2.34-3.7-3.34-5-3.76-7.69-8.58-7.37-14.97.16-3.32.03-6.66.04-10Zm39.78,8.25c.93-5.33-3.21-10.24-7.42-8.8-2.56.53-5.12,1.06-7.69,1.59-1.61.99-4.14,1.64-4.64,3.03-1.17,3.18-1.58,6.78,1.99,9.2,1.91,1.01,3.81,2.02,5.72,3.03,1.56-.53,3.13-1.05,4.69-1.58,2.45-2.15,4.9-4.31,7.35-6.46Z"/>
  <path class="cls-16" d="m245.44,243.98c2.56-.53,5.12-1.06,7.68-1.6,4.31,1.11,5.35,4.34,5.34,8.26-2.46,6.19-4.15,6.88-11.9,4.82-3.86-3.49-2.49-7.49-1.12-11.48Z"/>
  <path class="cls-9" d="m245.44,243.98c-1.37,4-2.74,7.99,1.12,11.48-1.26.25-2.51.5-3.77.75-3.57-2.42-3.16-6.02-1.99-9.2.51-1.39,3.03-2.04,4.64-3.03Z"/>
  <path class="cls-20" d="m242.79,256.21c1.26-.25,2.52-.5,3.77-.75,7.75,2.06,9.44,1.37,11.9-4.82.7.18,1.4.37,2.09.55-2.45,2.15-4.9,4.31-7.35,6.47-1.56.53-3.13,1.05-4.69,1.58-1.91-1.01-3.81-2.02-5.72-3.03Z"/>
  <path class="cls-9" d="m260.55,251.19c-.7-.18-1.4-.36-2.09-.55.02-3.92-1.03-7.15-5.34-8.26,4.22-1.43,8.36,3.48,7.43,8.81Z"/>
  <path class="cls-9" d="m248.51,259.24c1.56-.53,3.13-1.05,4.69-1.58-1.56.53-3.13,1.05-4.69,1.58Z"/>
</svg>