<?xml version="1.0" encoding="iso-8859-1"?>
<!-- Uploaded to: SVG Repo, www.svgrepo.com, Generator: SVG Repo Mixer Tools -->
<svg xmlns="http://www.w3.org/2000/svg" xmlns:xlink="http://www.w3.org/1999/xlink" version="1.1" id="Layer_1"  viewBox="0 0 437.65 437.65" xml:space="preserve" width="512" height="512">
<g id="_x33_6._Globe_1_">
	<g id="XMLID_84_">
		<g>
			<g>
				<path style="fill:#8ECAC1;" d="M315.715,126.25c11.88,26.08,15.16,56.26,7.28,86.11l-0.73-0.19l-61.42-16.46v-0.01      c6.05-22.58,8.72-44.56,8.34-64.21C286.575,131.94,302.445,130.11,315.715,126.25z"/>
			</g>
			<g>
				<path style="fill:#8ECAC1;" d="M322.995,212.36c-0.02,0.08-0.04,0.16-0.06,0.24c-8.11,30.05-26.23,54.74-49.81,71.44      c-9.58-9.95-22.42-19.43-37.69-27.7c10.38-17,19.26-37.67,25.41-60.63l61.42,16.46L322.995,212.36z"/>
			</g>
			<g>
				<path style="fill:#8ECAC1;" d="M238.235,57.1c35.56,11.48,62.95,37.25,77.48,69.15c-13.27,3.86-29.14,5.69-46.53,5.24      C268.505,95.13,257.455,66.71,238.235,57.1z"/>
			</g>
			<g>
				<path style="fill:#F2D59F;" d="M271.285,402.44v25.21h-145v-25.21c22.32,0,41.47-13.57,49.65-32.91      c2.73-6.45,4.23-13.54,4.23-20.97l0.17-1.52c6.01,0.65,12.12,0.98,18.3,0.98c6.29,0,12.49-0.34,18.6-1.01l0.17,1.55      c0,6.96,1.33,13.62,3.74,19.74c3.93,10,10.77,18.53,19.48,24.57C249.325,398.9,259.895,402.44,271.285,402.44z"/>
			</g>
			<g>
				<path style="fill:#8ECAC1;" d="M269.185,131.49c0.38,19.65-2.29,41.63-8.34,64.21v0.01l-124.31-33.31v-0.01      c6.05-22.57,14.73-42.94,24.88-59.77c15.25,8.3,32.94,15.39,52.24,20.56C232.965,128.35,251.835,131.05,269.185,131.49z"/>
			</g>
			<g>
				<path style="fill:#8ECAC1;" d="M136.535,162.4l124.31,33.31c-6.15,22.96-15.03,43.63-25.41,60.63      c-15.19-8.24-32.79-15.29-51.98-20.43c-19.2-5.14-37.97-7.84-55.24-8.29C127.725,207.71,130.375,185.36,136.535,162.4z"/>
			</g>
			<g>
				<path style="fill:#8ECAC1;" d="M238.235,57.1c19.22,9.61,30.27,38.03,30.95,74.39c-17.35-0.44-36.22-3.14-55.53-8.31      c-19.3-5.17-36.99-12.26-52.24-20.56c18.77-31.15,42.56-50.24,64-48.96c2.15,0.46,4.31,0.98,6.46,1.56      C234.025,55.8,236.145,56.42,238.235,57.1z"/>
			</g>
			<g>
				<path style="fill:#8ECAC1;" d="M235.435,256.34c15.27,8.27,28.11,17.75,37.69,27.7c-29.88,21.16-68.53,29.48-106.68,19.59      C189.045,308.88,215.125,289.66,235.435,256.34z"/>
			</g>
			<g>
				<path style="fill:#8ECAC1;" d="M225.415,53.66c-21.44-1.28-45.23,17.81-64,48.96c-15.28-8.31-28.11-17.83-37.67-27.81      C152.275,54.45,188.875,45.83,225.415,53.66z"/>
			</g>
			<g>
				<path style="fill:#8ECAC1;" d="M183.455,235.91c19.19,5.14,36.79,12.19,51.98,20.43c-20.31,33.32-46.39,52.54-68.99,47.29      c-0.35-0.08-0.71-0.18-1.06-0.27c-22.85-6.12-36.21-36.12-37.17-75.74C145.485,228.07,164.255,230.77,183.455,235.91z"/>
			</g>
			<g>
				<path style="fill:#8ECAC1;" d="M123.745,74.81c9.56,9.98,22.39,19.5,37.67,27.81c-10.15,16.83-18.83,37.2-24.88,59.77v0.01      l-62.16-16.65C82.475,115.96,100.415,91.46,123.745,74.81z"/>
			</g>
			<g>
				<path style="fill:#8ECAC1;" d="M74.375,145.75l62.16,16.65c-6.16,22.96-8.81,45.31-8.32,65.22      c-17.36-0.48-33.21,1.31-46.48,5.13c-12.07-26.24-15.42-56.68-7.42-86.77C74.335,145.9,74.355,145.83,74.375,145.75z"/>
			</g>
			<g>
				<path style="fill:#8ECAC1;" d="M128.215,227.62c0.96,39.62,14.32,69.62,37.17,75.74c-38.5-10.31-68.21-37.03-83.65-70.61      C95.005,228.93,110.855,227.14,128.215,227.62z"/>
			</g>
		</g>
		<g>
			<g>
				<path style="fill:#5E2A41;" d="M271.284,437.65h-145c-5.522,0-10-4.477-10-10v-25.21c0-5.523,4.478-10,10-10      c17.68,0,33.553-10.522,40.44-26.806c2.282-5.393,3.439-11.138,3.439-17.074c0-5.523,4.478-10,10-10c5.523,0,10,4.477,10,10      c0,8.629-1.689,16.996-5.021,24.867c-8.704,20.58-27.271,34.837-48.859,38.232v5.99h125v-5.987      c-9.438-1.483-18.409-5.066-26.356-10.574c-10.47-7.259-18.454-17.332-23.091-29.131c-2.94-7.467-4.433-15.341-4.433-23.397      c0-5.523,4.478-10,10-10c5.522,0,10,4.477,10,10c0,5.537,1.024,10.945,3.045,16.076c3.185,8.104,8.673,15.023,15.874,20.016      c7.35,5.095,15.982,7.788,24.961,7.788c5.522,0,10,4.477,10,10v25.21C281.284,433.173,276.807,437.65,271.284,437.65z"/>
			</g>
			<g>
				<path style="fill:#5E2A41;" d="M198.635,358.02c-6.487,0-13.006-0.349-19.375-1.038c-37.611-4.057-72.388-19.649-100.566-45.09      c-4.1-3.701-4.422-10.024-0.722-14.124c3.702-4.099,10.024-4.422,14.124-0.721c25.031,22.598,55.915,36.447,89.311,40.05      c11.414,1.235,23.324,1.224,34.737-0.028c38.677-4.234,74.4-22.554,100.591-51.586c26.381-29.243,40.909-67.056,40.909-106.473      c0-87.678-71.331-159.01-159.01-159.01c-5.522,0-10-4.477-10-10c0-5.523,4.478-10,10-10c98.706,0,179.01,80.303,179.01,179.01      c0,44.376-16.357,86.946-46.059,119.87c-29.481,32.68-69.705,53.303-113.264,58.071      C211.851,357.66,205.226,358.02,198.635,358.02z"/>
			</g>
			<g>
				<path style="fill:#5E2A41;" d="M174.008,314.491c-3.315,0-6.594-0.369-9.826-1.12c-5.38-1.25-8.727-6.624-7.477-12.004      c1.249-5.38,6.625-8.727,12.003-7.478c17.095,3.971,39.936-12.811,58.189-42.754c10.167-16.65,18.543-36.631,24.234-57.805      c0.018-0.073,0.036-0.146,0.056-0.218c5.607-20.926,8.373-42.168,8.001-61.429c-0.616-32.957-10.358-58.106-25.425-65.639      c-1.388-0.698-2.847-1.252-4.352-1.656c-5.334-1.433-8.496-6.918-7.063-12.252c1.433-5.333,6.914-8.495,12.252-7.063      c2.812,0.755,5.545,1.795,8.124,3.092c22.386,11.193,35.681,41.5,36.459,83.139c0.407,21.039-2.574,44.124-8.621,66.769      c-0.018,0.075-0.037,0.151-0.058,0.226c-6.181,23.073-15.355,44.945-26.534,63.254      C223.325,295.42,197.814,314.488,174.008,314.491z"/>
			</g>
			<g>
				<path style="fill:#5E2A41;" d="M165.391,313.362c-0.856,0-1.727-0.111-2.593-0.343c-26.797-7.177-43.462-39.012-44.58-85.158      c-0.526-21.371,2.448-44.826,8.601-67.839c0.019-0.075,0.037-0.149,0.057-0.223c6.085-22.698,15.067-44.257,25.976-62.345      c21.494-35.668,48.161-55.249,73.159-53.778c2.376,0.141,4.79,0.49,7.171,1.036c5.383,1.235,8.745,6.6,7.511,11.983      c-1.235,5.383-6.596,8.748-11.983,7.51c-1.303-0.299-2.61-0.489-3.886-0.564c-16.831-1.005-37.832,15.91-54.843,44.139      c-9.923,16.454-18.126,36.155-23.73,56.991c-0.019,0.074-0.037,0.146-0.057,0.219c-5.702,21.258-8.462,42.83-7.98,62.383      c0.864,35.683,12.546,61.716,29.76,66.327c5.335,1.429,8.502,6.912,7.072,12.246      C173.848,310.415,169.807,313.362,165.391,313.362z"/>
			</g>
			<g>
				<path style="fill:#5E2A41;" d="M322.933,222.602c-1.182,0-2.383-0.211-3.553-0.656c-4.954-1.884-7.542-7.279-6.008-12.273      c16.88-63.19-20.767-128.347-83.956-145.284l-0.263-0.068c-0.146-0.039-0.292-0.079-0.436-0.112      c-0.095-0.021-0.188-0.044-0.282-0.069c-30.488-7.901-62.272-3.519-89.5,12.342c-27.178,15.833-46.648,41.265-54.846,71.63      c-1.068,4.375-5.013,7.627-9.715,7.627c-5.522,0-10-4.467-10-9.99c0-0.875,0.114-1.765,0.341-2.609      c9.54-35.587,32.323-65.398,64.152-83.94c31.78-18.513,68.874-23.645,104.466-14.452c0.303,0.072,0.609,0.151,0.913,0.231      l0.253,0.066c73.947,19.819,117.938,95.997,98.178,169.851c-0.085,0.328-0.204,0.75-0.396,1.257      C330.763,220.146,326.964,222.602,322.933,222.602z"/>
			</g>
			<g>
				<path style="fill:#5E2A41;" d="M273.134,294.041c-3.134,0-6.22-1.469-8.169-4.221c-3.192-4.507-2.127-10.748,2.381-13.94      c22.419-15.879,38.721-39.242,45.909-65.794l0.007-0.027c0.015-0.061,0.048-0.19,0.064-0.251      c6.972-26.405,4.588-54.607-6.711-79.412c-2.289-5.026-0.07-10.957,4.955-13.246c5.024-2.288,10.955-0.072,13.246,4.955      c13.197,28.972,15.99,61.902,7.866,92.737l-0.018,0.075c-0.019,0.074-0.054,0.214-0.074,0.288      c-8.386,31.071-27.451,58.416-53.684,76.996C277.15,293.443,275.132,294.041,273.134,294.041z"/>
			</g>
			<g>
				<path style="fill:#5E2A41;" d="M81.74,242.752c-3.784,0-7.405-2.16-9.091-5.823c-13.43-29.196-16.27-62.408-7.999-93.519      l0.033-0.126c0.012-0.048,0.028-0.111,0.042-0.158c8.371-30.79,27.269-57.942,53.21-76.456      c4.493-3.21,10.741-2.165,13.948,2.331c3.208,4.496,2.165,10.741-2.331,13.949c-22.189,15.836-38.355,39.062-45.522,65.403      l-0.024,0.093c-0.008,0.03-0.02,0.075-0.027,0.104c-7.078,26.624-4.649,55.043,6.841,80.021      c2.308,5.018,0.111,10.956-4.906,13.264C84.56,242.457,83.139,242.752,81.74,242.752z"/>
			</g>
			<g>
				<path style="fill:#5E2A41;" d="M274.426,141.558c-1.815,0-3.648-0.024-5.5-0.072c-18.733-0.475-38.201-3.384-57.857-8.647      c-19.665-5.268-37.979-12.48-54.434-21.437c-16.185-8.802-29.68-18.786-40.111-29.675c-2.008-2.096-3.006-4.961-2.734-7.852      c0.271-2.89,1.784-5.52,4.147-7.206c31.689-22.615,71.627-30.919,109.574-22.789c2.339,0.5,4.686,1.067,6.97,1.683      c2.456,0.663,4.696,1.325,6.848,2.025c36.909,11.916,67.347,39.078,83.488,74.515c1.203,2.642,1.199,5.677-0.012,8.315      c-1.211,2.639-3.509,4.621-6.296,5.432C305.474,139.643,290.666,141.558,274.426,141.558z M140.004,76.288      c7.479,6.243,16.354,12.199,26.188,17.547c0.001,0.001,0.002,0.002,0.003,0.002c15.07,8.202,31.909,14.825,50.048,19.684      c18.134,4.854,36.032,7.537,53.196,7.973c11.189,0.287,21.853-0.429,31.454-2.095c-14.671-24.925-38.075-43.854-65.73-52.782      c-1.847-0.601-3.768-1.168-5.893-1.741c-1.945-0.525-3.946-1.008-5.947-1.436C194.901,57.349,165.169,62.039,140.004,76.288z"/>
			</g>
			<g>
				<path style="fill:#5E2A41;" d="M198.682,318.264c-12.018,0-24.117-1.568-36.015-4.754      c-40.163-10.766-73.096-38.657-90.353-76.522c-1.218-2.673-1.199-5.746,0.051-8.404c1.251-2.658,3.606-4.632,6.443-5.397      l0.298-0.084c5.332-1.453,10.825,1.692,12.276,7.021c0.075,0.277,0.139,0.554,0.189,0.831      c15.035,31.26,42.702,54.239,76.271,63.237c33.574,8.994,69.03,2.917,97.682-16.65c0.034-0.04,0.068-0.079,0.103-0.118      c3.654-4.141,9.973-4.535,14.115-0.879c0.398,0.351,0.776,0.731,1.126,1.129c1.865,2.125,2.744,4.94,2.419,7.749      c-0.325,2.809-1.824,5.349-4.126,6.991C255.322,309.417,227.23,318.263,198.682,318.264z"/>
			</g>
			<g>
				<path style="fill:#5E2A41;" d="M198.775,317.761c-11.593,0.001-23.251-1.457-34.724-4.42c-0.296-0.07-0.597-0.148-0.895-0.227      l-0.261-0.068c-0.032-0.009-0.066-0.017-0.098-0.026c-39.979-10.706-72.837-38.44-90.149-76.092      c-1.217-2.648-1.219-5.695-0.005-8.344c1.215-2.65,3.523-4.637,6.324-5.443c14.48-4.169,31.146-6.026,49.523-5.517      c18.612,0.485,37.98,3.388,57.549,8.627c19.527,5.23,37.75,12.396,54.163,21.3c16.181,8.764,29.683,18.709,40.126,29.554      c2.021,2.099,3.025,4.975,2.752,7.875c-0.274,2.901-1.799,5.538-4.177,7.222C255.174,309.005,227.183,317.76,198.775,317.761z       M167.954,293.696l0.296,0.077c0.143,0.038,0.286,0.077,0.427,0.109c0.093,0.021,0.186,0.044,0.277,0.067      c29.852,7.74,61.229,3.556,87.846-11.399c-7.469-6.196-16.324-12.108-26.128-17.418c-15.04-8.158-31.795-14.74-49.805-19.563      c-18.052-4.833-35.855-7.508-52.913-7.953c-11.146-0.308-21.767,0.382-31.338,2.012      C112.364,266.201,137.791,285.613,167.954,293.696z"/>
			</g>
			<g>
				<path style="fill:#5E2A41;" d="M322.271,222.172c-0.857,0-1.728-0.111-2.595-0.343L71.395,155.303      c-5.332-1.442-8.484-6.933-7.043-12.264c1.441-5.332,6.932-8.483,12.264-7.043l0.37,0.1l247.868,66.414      c5.334,1.43,8.5,6.913,7.07,12.248C330.727,219.226,326.686,222.172,322.271,222.172z"/>
			</g>
			<g>
				<path style="fill:#5E2A41;" d="M234.351,62.063c-0.857,0-1.728-0.111-2.594-0.343c-5.335-1.429-8.501-6.913-7.071-12.248      l7.42-27.69c1.43-5.333,6.915-8.5,12.247-7.071c5.335,1.429,8.501,6.913,7.071,12.248l-7.42,27.69      C242.807,59.116,238.766,62.063,234.351,62.063z"/>
			</g>
			<g>
				<path style="fill:#5E2A41;" d="M156.73,351.732c-0.856,0-1.728-0.111-2.595-0.343c-5.334-1.43-8.5-6.913-7.07-12.247l8.68-32.39      c1.43-5.334,6.911-8.501,12.248-7.071c5.334,1.43,8.5,6.913,7.07,12.248l-8.68,32.39      C165.187,348.786,161.146,351.732,156.73,351.732z"/>
			</g>
		</g>
	</g>
</g>















</svg>