<?xml version="1.0" encoding="utf-8"?>
<!-- Generator: Adobe Illustrator 22.0.0, SVG Export Plug-In . SVG Version: 6.00 Build 0)  -->
<svg version="1.1" id="Layer_1" xmlns="http://www.w3.org/2000/svg" xmlns:xlink="http://www.w3.org/1999/xlink" x="0px" y="0px"
	 width="792px" height="612px" viewBox="0 0 792 612" style="enable-background:new 0 0 792 612;" xml:space="preserve">
<style type="text/css">
	.st0{fill:#1E1E1C;stroke:#FFFFFF;stroke-miterlimit:10;}
	.st1{fill:#FFFFFF;}
	.st2{fill:#1E1E1C;}
	.st3{fill:#FFFFFF;stroke:#1E1E1C;stroke-miterlimit:10;}
</style>
<path class="st0" d="M396,19c159.9,0,289.4,129.6,289.4,289.4S555.9,597.9,396,597.9"/>
<path class="st1" d="M632.1,336.6v-56.4h-39.8c-2.3-15.9-6.4-31.1-12.2-45.5l34.5-19.9L586.4,166l-34.5,19.9
	c-9.7-12.4-20.9-23.6-33.3-33.3l19.9-34.5l-48.8-28.2l-19.9,34.5c-14.4-5.8-29.7-9.9-45.5-12.2V72.3H396v37.8v18.6v359.4v18.6v37.8
	h28.2v-39.8c15.9-2.3,31.1-6.4,45.5-12.2l19.9,34.5l48.8-28.2l-19.9-34.5c12.4-9.7,23.6-20.9,33.3-33.3l34.5,19.9l28.2-48.8
	l-34.5-19.9c5.8-14.4,9.9-29.7,12.2-45.5H632.1z"/>
<path class="st2" d="M396,151.3c0,0,62.8,6.2,86.9,36.6s31.4,67.3,26.9,80.7c-4.5,13.5-7.2,14.1-7.6,20c-0.3,5.9-1.4,13.1-4.8,14.8
	c-3.4,1.7-1,7.2-1.7,12.4c-0.7,5.2-4.8,9-2.4,13.1c2.4,4.1,2.8,11.7,5.5,14.8c2.8,3.1,9.3,3.8,8.3,14.8c-1,11-4.1,9.7-6.9,16.6
	s-6.9,16.9-9,23.8s-4.5,9.7-8.3,11.7c-3.8,2.1-15.2,5.5-14.5,7.6c0.7,2.1-12.8-7.6-17.2-6.9s-5.2,6.9-2.4,10.7
	c2.8,3.8-0.7,7.9,0.3,10.3s3.3,6.9,4.4,11c1.1,4.1,4.2,19.7,1.8,20s-12,2.6-14.5,0c-2.9-3.1,0.3-16.6-3.1-16.6s-0.4,13.7-3.4,16.7
	c-2.6,2.6-12.3,2.7-14.8,0c-2.7-2.9,1-15-4.5-15c-5.5,0-1.8,12.1-4.5,15c-2.1,2.3-10.4,2.4-12.4,0c-2.6-3.1,2.4-16-2.1-16"/>
<path class="st1" d="M412.9,355.8l-3.4,12.1c0,0,26.9,14.5,34.5,16.2c7.6,1.7,14.8-1.7,18.3,0c3.4,1.7,5.9-4.5,8.6-6.2
	c2.8-1.7,9-21.7,11-24.8c2.1-3.1-3.1-4.1-10.3-9.3c-7.2-5.2-11.7-7.2-11.7-7.2s-19.3,11-27.6,13.8
	C423.9,353.1,412.9,355.8,412.9,355.8z"/>
<path class="st1" d="M411.2,416c0,0-1.6-1.8-1.7-7.8s-8.9-22.5-10.7-23.5c-1.8-1.1-2.8-1.2-2.8-1.2v20.8c0,0,6.4,2.3,7.6,6.5
	C404.7,414.8,411.2,416,411.2,416z"/>
<path class="st3" d="M396,19c-159.9,0-289.4,129.6-289.4,289.4S236.1,597.9,396,597.9"/>
<path class="st2" d="M159.9,336.6v-56.4h39.8c2.3-15.9,6.4-31.1,12.2-45.5l-34.5-19.9l28.2-48.8l34.5,19.9
	c9.7-12.4,20.9-23.6,33.3-33.3l-19.9-34.5l48.8-28.2l19.9,34.5c14.4-5.8,29.7-9.9,45.5-12.2V72.3H396v37.8v18.6v359.4v18.6v37.8
	h-28.2v-39.8c-15.9-2.3-31.1-6.4-45.5-12.2L302.4,527l-48.8-28.2l19.9-34.5c-12.4-9.7-23.6-20.9-33.3-33.3l-34.5,19.9l-28.2-48.8
	l34.5-19.9c-5.8-14.4-9.9-29.7-12.2-45.5H159.9z"/>
<path class="st1" d="M396,151.3c0,0-62.8,6.2-86.9,36.6s-31.4,67.3-26.9,80.7c4.5,13.5,7.2,14.1,7.6,20c0.3,5.9,1.4,13.1,4.8,14.8
	c3.4,1.7,1,7.2,1.7,12.4c0.7,5.2,4.8,9,2.4,13.1c-2.4,4.1-2.8,11.7-5.5,14.8c-2.8,3.1-9.3,3.8-8.3,14.8c1,11,4.1,9.7,6.9,16.6
	s6.9,16.9,9,23.8s4.5,9.7,8.3,11.7c3.8,2.1,15.2,5.5,14.5,7.6c-0.7,2.1,12.8-7.6,17.2-6.9s5.2,6.9,2.4,10.7
	c-2.8,3.8,0.7,7.9-0.3,10.3s-3.3,6.9-4.4,11c-1.1,4.1-4.2,19.7-1.8,20s12,2.6,14.5,0c2.9-3.1-0.3-16.6,3.1-16.6s0.4,13.7,3.4,16.7
	c2.6,2.6,12.3,2.7,14.8,0c2.7-2.9-1-15,4.5-15c5.5,0,1.8,12.1,4.5,15c2.1,2.3,10.4,2.4,12.4,0c2.6-3.1-2.4-16,2.1-16"/>
<path class="st2" d="M379.1,355.8l3.4,12.1c0,0-26.9,14.5-34.5,16.2c-7.6,1.7-14.8-1.7-18.3,0c-3.4,1.7-5.9-4.5-8.6-6.2
	c-2.8-1.7-9-21.7-11-24.8c-2.1-3.1,3.1-4.1,10.3-9.3c7.2-5.2,11.7-7.2,11.7-7.2s19.3,11,27.6,13.8
	C368.1,353.1,379.1,355.8,379.1,355.8z"/>
<path class="st2" d="M380.8,416c0,0,1.6-1.8,1.7-7.8s8.9-22.5,10.7-23.5c1.8-1.1,2.8-1.2,2.8-1.2v20.8c0,0-6.4,2.3-7.6,6.5
	C387.3,414.8,380.8,416,380.8,416z"/>
</svg>
