<svg version="1.1" id="Layer_1" xmlns="http://www.w3.org/2000/svg" xmlns:xlink="http://www.w3.org/1999/xlink" x="0px" y="0px"
	 width="100%" viewBox="0 0 225 225" enable-background="new 0 0 225 225" xml:space="preserve">

<path fill="#FFC928" opacity="1.000000" stroke="none" 
	d="
M177.891266,89.018768 
	C179.912628,89.382492 181.923889,89.984337 183.957016,90.070404 
	C195.207977,90.546631 201.241547,98.504753 198.360138,109.364403 
	C192.824020,130.229446 187.269165,151.089767 181.620941,171.924637 
	C179.713531,178.960587 175.322754,183.880066 167.574799,186.159363 
	C166.239868,186.392273 165.617569,186.702881 164.995255,187.013504 
	C163.844543,187.146286 162.693802,187.395294 161.543121,187.395035 
	C121.342361,187.386368 81.141602,187.354218 40.357216,186.967941 
	C39.193451,186.700287 38.613319,186.790085 38.033188,186.879898 
	C29.961237,183.825928 27.699322,180.004379 28.284756,169.132660 
	C28.766018,166.958710 28.903593,165.481186 29.314558,163.760757 
	C34.394131,145.660324 39.423290,127.858574 43.911560,109.921494 
	C46.125153,101.075020 50.670048,94.620560 59.474609,90.941994 
	C62.691402,90.647469 65.492203,90.156708 68.294319,90.149117 
	C101.539543,90.059036 134.784958,90.041031 168.467102,90.002464 
	C171.899673,89.673470 174.895477,89.346123 177.891266,89.018768 
z"/>
<path fill="#E8B826" opacity="1.000000" stroke="none" 
	d="
M177.993469,88.604797 
	C174.895477,89.346123 171.899673,89.673470 168.495392,89.578087 
	C168.654816,84.184723 167.109497,80.478966 161.667999,78.639702 
	C160.723969,78.236031 160.077072,78.019051 159.430023,78.018661 
	C129.198730,78.000443 98.967400,77.990128 68.736168,78.038773 
	C67.501945,78.040756 66.268654,78.618134 64.701599,79.054947 
	C58.466164,81.250534 58.520065,86.001099 59.059231,90.970222 
	C50.670048,94.620560 46.125153,101.075020 43.911560,109.921494 
	C39.423290,127.858574 34.394131,145.660324 29.074913,163.757385 
	C28.561876,163.996933 28.083660,164.010330 28.083660,164.010330 
	C28.029284,136.639130 27.974907,109.267937 28.238628,81.251617 
	C28.403080,79.748627 28.249434,78.890739 28.095787,78.032860 
	C28.038214,70.988678 27.980642,63.944492 28.163431,56.357574 
	C28.464911,55.718395 28.600302,55.573456 28.574417,55.533813 
	C28.455849,55.352215 28.292126,55.200096 28.144617,55.037395 
	C28.557991,48.041222 32.182228,43.287472 38.902756,40.480160 
	C39.937428,40.399883 40.473110,40.187092 41.008789,39.974300 
	C47.702000,39.889412 54.395206,39.804523 61.661369,40.076008 
	C62.797676,40.376347 63.361027,40.320316 63.924377,40.264286 
	C73.425743,44.009190 75.132133,52.055019 75.172173,61.696381 
	C103.897987,61.696381 132.472626,61.696381 161.671051,62.062016 
	C163.182861,62.332535 164.070908,62.237423 164.958939,62.142311 
	C174.309860,65.073059 179.988724,73.773132 178.766556,83.306503 
	C178.557602,84.936493 178.320038,86.562813 177.993469,88.604797 
z"/>
<path fill="#E7B50C" opacity="1.000000" stroke="none" 
	d="
M28.023296,164.419098 
	C28.083660,164.010330 28.561876,163.996933 28.801521,164.000305 
	C28.903593,165.481186 28.766018,166.958710 28.364614,168.689560 
	C28.054834,167.571213 28.008883,166.199554 28.023296,164.419098 
z"/>
<path fill="#E7B617" opacity="1.000000" stroke="none" 
	d="
M164.595810,62.028591 
	C164.070908,62.237423 163.182861,62.332535 162.128021,62.166218 
	C162.718369,61.908150 163.475525,61.911510 164.595810,62.028591 
z"/>
<path fill="#E7B50C" opacity="1.000000" stroke="none" 
	d="
M28.044483,78.397964 
	C28.249434,78.890739 28.403080,79.748627 28.320339,80.787018 
	C28.053696,80.232704 28.023438,79.497894 28.044483,78.397964 
z"/>
<path fill="#E7B613" opacity="1.000000" stroke="none" 
	d="
M40.678604,39.942841 
	C40.473110,40.187092 39.937428,40.399883 39.235397,40.418106 
	C39.495506,40.119488 39.921963,40.015430 40.678604,39.942841 
z"/>
<path fill="#E7B613" opacity="1.000000" stroke="none" 
	d="
M63.617821,40.139359 
	C63.361027,40.320316 62.797676,40.376347 62.114418,40.209034 
	C62.433430,39.995270 62.872349,40.004848 63.617821,40.139359 
z"/>
<path fill="#FFC718" opacity="1.000000" stroke="none" 
	d="
M38.356651,186.983551 
	C38.613319,186.790085 39.193451,186.700287 39.902653,186.848267 
	C39.581184,187.086426 39.130653,187.086823 38.356651,186.983551 
z"/>
<path fill="#FFC718" opacity="1.000000" stroke="none" 
	d="
M165.365936,187.048218 
	C165.617569,186.702881 166.239868,186.392273 167.234283,186.092468 
	C166.983124,186.429810 166.359879,186.756363 165.365936,187.048218 
z"/>
<path fill="#E7B50C" opacity="1.000000" stroke="none" 
	d="
M28.082315,55.268898 
	C28.292126,55.200096 28.455849,55.352215 28.574417,55.533813 
	C28.600302,55.573456 28.464911,55.718395 28.250351,55.894257 
	C28.096907,55.973675 28.020014,55.500401 28.082315,55.268898 
z"/>
<path fill="#F5F5F3" opacity="1.000000" stroke="none" 
	d="
M59.474609,90.941994 
	C58.520065,86.001099 58.466164,81.250534 65.165573,79.102592 
	C97.963600,78.990952 129.964325,78.959190 161.965057,78.927429 
	C167.109497,80.478966 168.654816,84.184723 168.058624,89.579727 
	C134.784958,90.041031 101.539543,90.059036 68.294319,90.149117 
	C65.492203,90.156708 62.691402,90.647469 59.474609,90.941994 
z"/>
<path fill="#E7B400" opacity="1.000000" stroke="none" 
	d="
M161.667999,78.639702 
	C129.964325,78.959190 97.963600,78.990952 65.498901,78.975067 
	C66.268654,78.618134 67.501945,78.040756 68.736168,78.038773 
	C98.967400,77.990128 129.198730,78.000443 159.430023,78.018661 
	C160.077072,78.019051 160.723969,78.236031 161.667999,78.639702 
z"/>
</svg>